<svg width="16" height="16" viewBox="0 0 16 16" fill="none" xmlns="http://www.w3.org/2000/svg">
    <path d="M8.34372 6.1819V9.12712C8.34372 9.12712 11.2 9.12218 12.3662 9.12218C11.7337 11.0296 10.7602 12.0723 8.34372 12.0723C5.90255 12.0723 4.00002 10.0957 4.00002 7.65451C4.00002 5.21334 5.9075 3.23669 8.34372 3.23669C9.63843 3.23669 10.4686 3.69132 11.2346 4.32385C11.8473 3.71108 11.7979 3.62213 13.3545 2.15447C12.0351 0.948706 10.2759 0.212402 8.35361 0.212402C4.24216 0.212402 0.911499 3.54307 0.911499 7.65451C0.911499 11.766 4.24216 15.0966 8.35361 15.0966C14.4961 15.0966 15.9934 9.74977 15.4943 6.18684C14.0414 6.1819 8.34372 6.1819 8.34372 6.1819Z" fill="white"/>
</svg>
