<svg width="327" height="283" viewBox="0 0 327 283" fill="none" xmlns="http://www.w3.org/2000/svg">
<path d="M155.947 24.8656L156.863 25.5722L157.779 24.8654C196.501 -5.01145 240.115 -2.4815 271.092 17.2919C301.551 36.7346 319.736 72.7839 309.182 111.235C295.343 100.981 278.226 94.8367 259.633 94.8367C213.574 94.8367 176.232 132.178 176.232 178.238C176.232 201.153 185.459 221.837 200.352 236.888L156.863 280.377L20.9925 144.507C4.62438 122.122 -0.538157 99.2968 2.19219 78.7126C4.92893 58.0802 15.6104 39.5911 31.0994 25.9756C62.0648 -1.24421 112.152 -8.91034 155.947 24.8656ZM255.194 132.325V142.363C244.992 144.486 238.286 151.882 238.286 161.628C238.286 166.933 240.235 171.034 243.704 174.363C247.107 177.631 251.938 180.123 257.668 182.398C261.73 184.052 264.67 185.748 266.587 187.675C268.451 189.548 269.377 191.665 269.377 194.337C269.377 197.078 268.239 199.394 266.241 201.051C264.223 202.724 261.25 203.782 257.546 203.782C251.606 203.782 246.059 201.755 242.282 199.224L240.683 198.152L240.035 199.964L237.352 207.46L236.97 208.525L237.89 209.184C241.806 211.994 248.148 213.968 254.385 214.346V224.193V225.693H255.885H262.955H264.455V224.193V213.851C275.85 211.435 282.088 202.819 282.088 193.57C282.088 188.259 280.53 183.957 277.375 180.372C274.264 176.837 269.687 174.099 263.826 171.698C258.947 169.674 255.686 168.016 253.638 166.235C251.697 164.547 250.869 162.77 250.869 160.307C250.869 158.424 251.55 156.422 253.116 154.89C254.67 153.371 257.235 152.182 261.252 152.182C268.029 152.182 272.36 154.509 274.612 155.779L276.13 156.634L276.75 155.007L279.561 147.639L280.012 146.458L278.924 145.814C275.727 143.92 271.32 142.175 265.137 141.758V132.325V130.825H263.637H256.694H255.194V132.325ZM325.383 178.28C325.383 214.591 295.943 244.03 259.633 244.03C223.323 244.03 193.883 214.591 193.883 178.28C193.883 141.97 223.323 112.53 259.633 112.53C295.943 112.53 325.383 141.97 325.383 178.28Z" stroke="white" stroke-width="3"/>
</svg>
