<svg width="136" height="41" viewBox="0 0 136 41" fill="none" xmlns="http://www.w3.org/2000/svg">
<path d="M95.1083 19.7543C94.8092 19.7537 94.5167 19.8418 94.2676 20.0075C94.0186 20.1732 93.8243 20.409 93.7093 20.6851C93.5943 20.9612 93.5637 21.2652 93.6214 21.5587C93.6791 21.8521 93.8226 22.1219 94.0336 22.3339C94.2446 22.5458 94.5138 22.6905 94.807 22.7495C95.1002 22.8085 95.4043 22.7793 95.6809 22.6655C95.9576 22.5517 96.1942 22.3584 96.361 22.1101C96.5278 21.8618 96.6172 21.5697 96.6179 21.2706C96.6184 20.8694 96.4598 20.4845 96.1767 20.2002C95.8937 19.9159 95.5095 19.7555 95.1083 19.7543ZM42.715 21.1914C42.715 21.1914 43.4693 18.6662 43.5837 18.2704C43.8889 17.2433 44.3467 15.6259 44.3467 15.6259H44.4211C44.4211 15.6259 44.8416 17.3024 45.1153 18.2561C45.2231 18.6271 45.9431 21.1914 45.9431 21.1914H42.715ZM47.3058 25.7765H50.0352L45.9135 13.1779C45.4136 13.0166 44.8911 12.9361 44.3657 12.9395C43.7411 12.9395 43.5179 13.0225 43.0306 13.1779L38.6572 25.7765H41.2712C41.2712 25.7765 41.6221 24.6732 42.0503 23.3028H46.5706L47.3058 25.7765ZM135.596 25.7765C135.596 25.7765 134.305 23.0176 133.988 22.394C133.631 21.6863 133.304 21.1981 132.573 21.0245V20.9845C133.062 20.8891 133.45 20.5954 133.87 19.6942C134.276 18.813 134.396 18.6251 134.633 18.4163C134.709 18.3543 134.798 18.3103 134.894 18.2877C134.989 18.2651 135.089 18.2644 135.184 18.2856L135.305 16.6454C134.939 16.6037 134.57 16.5954 134.202 16.6206C133.562 16.6606 133.227 16.8428 132.914 17.1623C132.669 17.4064 132.5 17.7697 132.291 18.196C132.069 18.6518 131.894 19.02 131.67 19.4834C131.446 19.9469 131.332 20.171 130.717 20.171H130.321V16.7636H127.943V25.7765H130.321V22.0936L130.645 22.0878C131.321 22.0878 131.437 22.2566 131.796 22.97C132.218 23.8225 133.018 25.7765 133.018 25.7765H135.596ZM125.869 25.7765V16.7636H123.5V20.172H120.822V16.7636H118.457V25.7765H120.822V22.0964H123.505V25.7765H125.869ZM60.7742 16.6816L60.7637 25.3026C61.8588 25.7551 63.0319 25.9887 64.2168 25.9902C66.7326 25.9902 68.0782 24.6894 68.0782 22.5465C68.0782 20.6078 66.887 19.4071 64.6593 19.4071C64.0948 19.4071 63.7629 19.4825 63.1411 19.6322V16.6816H60.7742ZM65.6292 22.6572C65.6292 23.546 65.3154 24.1553 64.1777 24.1553C63.8263 24.1708 63.4749 24.1234 63.1402 24.0152V21.4165C63.7572 21.2963 63.8125 21.2763 64.1777 21.2763C65.2659 21.2763 65.6292 21.8046 65.6292 22.6572ZM117.216 24.9116C116.588 23.9579 116.427 23.3991 116.427 22.2042V19.7752C116.427 18.464 116.276 17.9833 115.929 17.5017C115.452 16.8275 114.648 16.5367 113.168 16.5367C112.14 16.5295 111.115 16.6513 110.117 16.899L110.468 18.6375C111.084 18.5408 111.706 18.4828 112.33 18.464C113.896 18.464 114.076 18.6929 114.076 19.8668V20.3083C113.687 20.2007 113.285 20.1462 112.88 20.1462C110.513 20.1462 109.266 21.302 109.266 23.2093C109.266 25.0012 110.601 25.9749 112.229 25.9749C112.823 25.9781 113.413 25.8717 113.969 25.6611C114.258 25.5342 114.535 25.378 114.793 25.1948C115.029 25.541 115.502 25.8919 115.695 25.9577L117.216 24.9116ZM114.204 23.8721C113.797 24.0246 113.364 24.1 112.929 24.0943C112.081 24.0943 111.604 23.7596 111.604 22.8908C111.604 21.9858 112.212 21.6797 113.385 21.6797C113.62 21.676 113.854 21.7059 114.081 21.7684V22.4149C114.081 23.1168 114.119 23.5736 114.204 23.8721ZM91.082 24.9116C90.4574 23.9579 90.2952 23.3991 90.2952 22.2042V19.7752C90.2952 18.464 90.1436 17.9833 89.7955 17.5017C89.3187 16.8275 88.5148 16.5367 87.0357 16.5367C86.0073 16.5298 84.9822 16.6516 83.984 16.899L84.3359 18.6375C84.9525 18.5408 85.5745 18.4828 86.1984 18.464C87.7662 18.464 87.9474 18.6929 87.9474 19.8668V20.3083C87.5572 20.2008 87.1543 20.1463 86.7496 20.1462C84.3798 20.1462 83.1324 21.302 83.1324 23.2093C83.1324 25.0012 84.4675 25.9749 86.0983 25.9749C86.6924 25.978 87.2821 25.8716 87.8377 25.6611C88.1275 25.5334 88.4038 25.3772 88.6626 25.1948C88.8982 25.541 89.3702 25.8919 89.5629 25.9577L91.082 24.9116ZM88.0742 23.8721C87.6665 24.0242 87.2343 24.0995 86.7992 24.0943C85.9523 24.0943 85.4698 23.7596 85.4698 22.8908C85.4698 21.9858 86.0782 21.6797 87.2522 21.6797C87.4885 21.6766 87.7241 21.7064 87.9521 21.7684V22.4149C87.9512 23.1168 87.9855 23.5736 88.0742 23.8721ZM58.8926 25.7794V17.0917C57.5919 16.7045 56.5915 16.5367 55.2859 16.5367C53.9804 16.5367 53.0067 16.7045 51.706 17.0917V21.5385C51.706 22.7478 51.685 23.1101 51.5524 23.5011C51.4218 23.8435 51.2463 24.2545 50.7695 24.5721L51.4141 25.9587C53.3214 25.4218 54.0328 24.595 54.0328 21.9639V18.6957C54.6613 18.6004 54.7853 18.5822 55.2859 18.5822C55.7866 18.5822 55.8953 18.6042 56.5257 18.6957V25.7794H58.8926ZM76.8212 28.7357V25.4933C77.1216 25.6707 77.7195 25.9329 78.7285 25.9329C80.7311 25.9329 82.2122 24.266 82.2122 21.22C82.2122 17.9376 80.7435 16.5328 78.3308 16.5328C77.7167 16.5328 77.318 16.5958 76.8212 16.8323V12.9605H74.46V16.8294C73.9641 16.5929 73.5626 16.53 72.9513 16.53C70.5367 16.53 69.0671 17.9929 69.0671 21.2715C69.0671 24.3232 70.3955 25.9301 72.5489 25.9301C73.5626 25.9301 74.1605 25.6678 74.4561 25.4904V28.7328H76.8212V28.7357ZM71.4998 21.2706C71.4998 19.4586 72.0453 18.505 73.1315 18.505C73.5902 18.505 73.8944 18.505 74.46 18.773V23.75C74.0714 23.8913 73.6591 23.9561 73.246 23.9408C72.0062 23.9408 71.4998 22.9309 71.4998 21.2706ZM79.7803 21.2162C79.7803 22.8727 79.1204 23.9408 78.0333 23.9408C77.6207 23.9557 77.2092 23.8909 76.8212 23.75V18.7749C77.3867 18.504 77.6919 18.5069 78.1487 18.5069C79.2368 18.5069 79.7813 19.4062 79.7813 21.2172L79.7803 21.2162ZM108.368 21.8637C108.368 19.6312 107.06 18.093 104.311 18.093C103.678 18.0898 103.048 18.1693 102.436 18.3295V15.1148C103.127 15.03 103.823 14.9898 104.52 14.9946C105.43 14.9938 106.339 15.0451 107.243 15.1482L107.305 13.2847C106.285 13.0558 104.804 12.9166 103.655 12.9166C102.522 12.9166 100.762 13.2027 99.9233 13.4268V25.3064C101.169 25.7691 102.487 26.0052 103.815 26.0035C106.811 26.0035 108.367 24.4176 108.367 21.8637H108.368ZM105.847 22.044C105.847 23.2484 105.18 24.0399 103.953 24.0399C103.442 24.0608 102.93 24.0033 102.436 23.8692V20.2215C102.937 20.1343 103.445 20.0969 103.953 20.11C105.201 20.1586 105.846 20.7422 105.846 22.044H105.847ZM13.253 6.4261L9.70928 17.0678H16.854L13.2978 6.4261H13.253ZM0.831781 34.7618C0.778976 34.7623 0.726787 34.7732 0.678204 34.7939C0.629622 34.8146 0.5856 34.8447 0.54866 34.8824C0.51172 34.9202 0.482587 34.9648 0.462931 35.0138C0.443275 35.0628 0.433481 35.1152 0.434111 35.1681V39.6941C0.433481 39.7469 0.443275 39.7993 0.462931 39.8483C0.482587 39.8973 0.51172 39.942 0.54866 39.9797C0.5856 40.0174 0.629622 40.0475 0.678204 40.0682C0.726787 40.0889 0.778976 40.0998 0.831781 40.1003H25.722C25.7745 40.0996 25.8264 40.0885 25.8747 40.0676C25.9229 40.0468 25.9666 40.0166 26.0032 39.9789C26.0398 39.9412 26.0685 39.8966 26.0879 39.8477C26.1072 39.7988 26.1167 39.7466 26.1158 39.6941V35.1681C26.1167 35.1155 26.1072 35.0633 26.0879 35.0144C26.0685 34.9655 26.0398 34.9209 26.0032 34.8832C25.9666 34.8455 25.9229 34.8153 25.8747 34.7945C25.8264 34.7737 25.7745 34.7625 25.722 34.7618H0.831781ZM13.275 0.0996094C15.9986 0.0996094 16.854 2.04982 17.5664 4.00288C17.8696 4.82874 24.9438 24.2011 25.1555 24.7828C25.1934 24.8827 25.1905 24.9934 25.1475 25.0912C25.1045 25.1889 25.0248 25.2659 24.9257 25.3054C24.6748 25.4008 20.9985 26.8313 20.7954 26.9076C20.6966 26.9426 20.588 26.9372 20.4932 26.8925C20.3984 26.8479 20.325 26.7676 20.289 26.6692C20.2137 26.4679 18.6898 22.2452 18.5181 21.7722H8.04039C7.86778 22.249 6.32383 26.4746 6.25708 26.6692C6.24001 26.7183 6.21331 26.7636 6.17852 26.8023C6.14373 26.841 6.10156 26.8724 6.05449 26.8946C6.00741 26.9168 5.95637 26.9294 5.90437 26.9316C5.85237 26.9339 5.80044 26.9257 5.75164 26.9076C5.53612 26.8217 1.84169 25.3913 1.62521 25.3054C1.52481 25.2671 1.44356 25.1908 1.3991 25.0929C1.35464 24.9951 1.35057 24.8837 1.38776 24.7828C1.6481 24.0552 8.61449 4.99468 8.97115 4.00288C9.66445 2.08129 10.5523 0.0996094 13.275 0.0996094Z" fill="#422619"/>
</svg>
