<svg width="143" height="51" viewBox="0 0 143 51" fill="none" xmlns="http://www.w3.org/2000/svg">
<path d="M3.22696 20.4861C4.1584 21.0278 5.20878 21.332 6.28553 21.372L17.9528 21.3831L12.1657 11.2949C11.5992 10.3793 10.8147 9.61842 9.88228 9.08016C8.37223 8.2179 6.58276 7.98686 4.90323 8.43731C3.22369 8.88776 1.79 9.98326 0.9141 11.4854C0.0381957 12.9876 -0.209045 14.7749 0.226175 16.4585C0.661395 18.142 1.74386 19.5856 3.23804 20.475" fill="white"/>
<path d="M13.8379 6.72623C13.8503 7.79718 14.0991 8.85216 14.5665 9.81581L20.429 19.9239L26.2914 9.86896C26.7991 8.9214 27.0654 7.86326 27.0666 6.78824C27.044 5.05413 26.3414 3.39821 25.11 2.17701C23.8786 0.955807 22.2169 0.266992 20.4827 0.258862C18.7484 0.250732 17.0804 0.923939 15.8376 2.13354C14.5948 3.34315 13.8767 4.9924 13.8379 6.72623Z" fill="white"/>
<path d="M30.9887 9.08255C30.0551 9.62163 29.2686 10.3823 28.6986 11.2973L22.8517 21.3855L34.4835 21.4165C35.558 21.3801 36.6069 21.0797 37.5377 20.5416C39.0332 19.6618 40.122 18.2281 40.5681 16.5512C41.0142 14.8743 40.7817 13.0892 39.921 11.5825C39.0603 10.0758 37.6407 8.96882 35.9697 8.50131C34.2986 8.03381 32.5107 8.24342 30.9931 9.08476" fill="white"/>
<path d="M37.6242 25.0265C36.692 24.4848 35.6409 24.1805 34.5635 24.1406H34.5745H22.9205L28.7077 34.2554C29.2426 35.1004 29.9625 35.813 30.8129 36.3393C31.6634 36.8656 32.6222 37.192 33.6172 37.2938C34.6121 37.3956 35.6172 37.2702 36.5566 36.927C37.4961 36.5838 38.3453 36.0318 39.0403 35.3126C39.7354 34.5935 40.258 33.7259 40.5689 32.7753C40.8799 31.8247 40.9709 30.8159 40.8352 29.825C40.6994 28.8341 40.3405 27.887 39.7855 27.055C39.2304 26.223 38.4937 25.5279 37.6309 25.0221" fill="white"/>
<path d="M26.9713 38.7845C26.9732 37.7078 26.7092 36.6473 26.2028 35.6972H26.2161L20.4046 25.5935L14.5643 35.6462C14.0281 36.6493 13.7608 37.7742 13.7884 38.9113C13.8161 40.0484 14.1377 41.1589 14.722 42.1348C15.3062 43.1107 16.1333 43.9186 17.1225 44.48C18.1118 45.0413 19.2295 45.3369 20.367 45.338C21.2313 45.3429 22.088 45.1772 22.8881 44.8502C23.6882 44.5232 24.4158 44.0414 25.0292 43.4325C25.6426 42.8236 26.1298 42.0996 26.4627 41.302C26.7956 40.5044 26.9677 39.6488 26.9691 38.7845" fill="white"/>
<path d="M9.86019 36.428C10.7939 35.8891 11.5805 35.1284 12.1502 34.2132V34.2309L17.9972 24.1494L6.36975 24.1184C5.23307 24.1559 4.12546 24.487 3.15474 25.0796C2.18402 25.6722 1.38328 26.506 0.830467 27.4999C0.277655 28.4938 -0.00838707 29.6139 0.000187241 30.7512C0.00876155 31.8884 0.31166 33.0041 0.879395 33.9895C1.30764 34.7401 1.87987 35.3987 2.56325 35.9276C3.24662 36.4565 4.0277 36.8453 4.86168 37.0717C5.69565 37.298 6.56611 37.3575 7.42312 37.2466C8.28012 37.1358 9.10681 36.8568 9.85576 36.4258" fill="white"/>
<path d="M52.1174 40.8112C52.6008 41.2835 53.1698 41.6594 53.794 41.9185C54.5265 42.2245 55.3146 42.3753 56.1084 42.3615C56.7366 42.3858 57.3633 42.2834 57.951 42.0603C58.1589 41.9872 58.3383 41.8501 58.4633 41.6686C58.5882 41.4871 58.6524 41.2706 58.6465 41.0504C58.6482 40.8564 58.6073 40.6643 58.5269 40.4878C58.4064 40.2752 58.2283 40.1009 58.0131 39.9851C57.6694 39.7836 57.3047 39.6202 56.9256 39.4978C56.31 39.2917 55.6838 39.1187 55.0497 38.9796C54.5363 38.8481 54.0318 38.6838 53.5393 38.4879C53.011 38.2846 52.5166 38.0024 52.0731 37.6507C51.6222 37.2999 51.2426 36.8662 50.9547 36.3728C50.6488 35.8278 50.4957 35.2103 50.5117 34.5855C50.5002 33.9139 50.6791 33.2528 51.0277 32.6786C51.3692 32.1215 51.8271 31.6448 52.3699 31.2811C52.9446 30.8934 53.577 30.5989 54.2436 30.4085C54.9253 30.2075 55.6324 30.1053 56.3431 30.1051C57.4204 30.0821 58.4953 30.2149 59.5346 30.4993C60.3883 30.755 61.191 31.1575 61.9066 31.6886L60.0683 34.2312C58.9802 33.4678 57.6764 33.0728 56.3476 33.1038C55.5038 33.1038 54.9124 33.2301 54.5758 33.4848C54.4241 33.5882 54.2997 33.7269 54.2133 33.8889C54.1269 34.0509 54.081 34.2314 54.0797 34.415C54.0797 34.8579 54.3543 35.2145 54.908 35.467C55.7449 35.8112 56.6105 36.081 57.4948 36.2731C58.1613 36.4186 58.8136 36.6232 59.4438 36.8844C59.9833 37.1084 60.4835 37.4171 60.9254 37.7991C61.3316 38.159 61.6563 38.6015 61.8778 39.0969C62.1113 39.6617 62.2244 40.2689 62.21 40.8798C62.2175 41.5368 62.0509 42.184 61.7272 42.7557C61.3956 43.3215 60.9416 43.8058 60.3983 44.1732C59.808 44.5773 59.1546 44.8804 58.4649 45.0701C57.7033 45.2893 56.9141 45.3974 56.1217 45.3913C54.8997 45.4088 53.6836 45.2193 52.5249 44.8309C51.5391 44.507 50.6539 43.9332 49.9558 43.1654L52.1174 40.8112Z" fill="white"/>
<path d="M65.4193 47.3712C65.6327 47.5395 65.8545 47.697 66.0837 47.8429C66.3593 48.0012 66.6742 48.078 66.9918 48.0644C67.2256 48.0665 67.4565 48.012 67.6648 47.9055C67.873 47.7991 68.0524 47.6439 68.1877 47.4531C68.5 47.0456 68.644 46.7887 68.9873 45.9294L69.4302 44.7689L63.054 30.5945H67.1645L71.2153 40.3837L74.781 30.5945H78.679L72.7568 44.8973C72.4733 45.6105 72.3758 45.9759 72.0923 46.7245C71.8213 47.4574 71.4723 48.159 71.0514 48.8174C70.6552 49.4394 70.1359 49.9738 69.5254 50.3877C68.8379 50.8174 68.0367 51.0297 67.2265 50.9967C66.5451 51.0158 65.8655 50.9169 65.2178 50.7044C64.7042 50.5242 64.2282 50.2509 63.8136 49.8982L65.4193 47.3712Z" fill="white"/>
<path d="M80.5925 30.5964H84.0054L84.0985 32.2132C84.3013 31.9873 84.5172 31.7735 84.7452 31.5731C85.0234 31.3297 85.3288 31.1194 85.6554 30.9463C86.0319 30.7388 86.4319 30.5774 86.847 30.4657C87.3397 30.336 87.8479 30.2742 88.3574 30.2819C90.1292 30.2819 91.4787 30.8164 92.406 31.8854C93.3332 32.9544 93.7968 34.3925 93.7968 36.1997V44.8904H90.2311V36.2373C90.2311 35.3227 89.9875 34.6162 89.4936 34.12C89.2416 33.8702 88.9409 33.6748 88.6102 33.546C88.2795 33.4172 87.9258 33.3578 87.5712 33.3715C87.1026 33.3696 86.639 33.4678 86.2113 33.6594C85.7956 33.8487 85.4249 34.1242 85.1239 34.4678C84.8166 34.8235 84.5758 35.2316 84.413 35.6726C84.2401 36.1465 84.1538 36.6476 84.1583 37.152V44.9037H80.5925V30.5964Z" fill="white"/>
<path d="M110.576 42.8217L110.075 43.3289C109.719 43.6652 109.324 43.9568 108.897 44.1971C108.277 44.5469 107.619 44.8234 106.935 45.021C106.005 45.281 105.043 45.4041 104.078 45.3864C103.021 45.3994 101.973 45.2029 100.993 44.8084C100.093 44.4481 99.2807 43.8994 98.6106 43.1992C97.9406 42.499 97.4282 41.6634 97.1079 40.7487C96.7495 39.7312 96.5747 38.6581 96.5918 37.5794C96.5816 36.5747 96.7604 35.5769 97.119 34.6383C97.4497 33.7622 97.9476 32.9588 98.5851 32.2729C99.228 31.5966 100.001 31.0572 100.857 30.6871C101.778 30.2928 102.771 30.0959 103.772 30.1091C104.908 30.0735 106.036 30.3192 107.054 30.8245C107.913 31.2697 108.653 31.9127 109.214 32.7004C109.767 33.4935 110.167 34.3828 110.394 35.3226C110.636 36.3008 110.758 37.3048 110.757 38.3125V38.8308H100.178C100.17 39.3301 100.29 39.8232 100.525 40.2637C100.753 40.6846 101.061 41.057 101.431 41.36C101.808 41.6691 102.238 41.9076 102.7 42.0643C103.153 42.2205 103.628 42.3013 104.106 42.3035C104.712 42.3129 105.316 42.2475 105.905 42.1086C106.358 41.9992 106.799 41.8456 107.223 41.6501C107.539 41.504 107.837 41.3195 108.109 41.1009C108.33 40.9082 108.516 40.7487 108.636 40.6291L110.576 42.8217ZM107.099 36.2373C107.089 35.4621 106.792 34.718 106.266 34.1488C105.972 33.8373 105.618 33.5887 105.225 33.4179C104.768 33.216 104.272 33.1162 103.772 33.1256C103.241 33.1164 102.713 33.2159 102.222 33.4179C101.802 33.5888 101.417 33.8367 101.088 34.1488C100.794 34.4311 100.559 34.7682 100.395 35.141C100.236 35.4849 100.153 35.8587 100.151 36.2373H107.099Z" fill="white"/>
<path d="M111.298 30.5967H115.411L119.218 40.8443L123.027 30.5967H126.925L120.943 44.8995H117.315L111.298 30.5967Z" fill="white"/>
<path d="M127.561 37.7323C127.555 36.724 127.746 35.7243 128.123 34.7889C128.477 33.88 129.009 33.0514 129.689 32.3521C130.369 31.6529 131.182 31.0973 132.081 30.7182C134.068 29.9045 136.295 29.9045 138.282 30.7182C139.181 31.098 139.995 31.6538 140.675 32.3529C141.355 33.052 141.889 33.8803 142.244 34.7889C142.989 36.6791 142.989 38.7811 142.244 40.6713C141.888 41.5751 141.362 42.4021 140.694 43.1075C140.015 43.8202 139.197 44.3863 138.291 44.7708C136.305 45.5877 134.076 45.5877 132.09 44.7708C131.183 44.3869 130.365 43.8207 129.687 43.1075C129.017 42.4034 128.491 41.576 128.136 40.6713C127.76 39.7375 127.569 38.7392 127.574 37.7323H127.561ZM135.19 42.277C135.811 42.2929 136.425 42.1504 136.976 41.8628C137.468 41.6 137.896 41.2317 138.229 40.7843C138.559 40.3411 138.81 39.8444 138.971 39.3159C139.129 38.8029 139.211 38.2692 139.212 37.7323C139.208 37.2 139.127 36.6712 138.971 36.1621C138.814 35.6335 138.562 35.1376 138.229 34.6981C137.892 34.2562 137.465 33.8915 136.976 33.6284C136.42 33.3574 135.811 33.2165 135.193 33.2165C134.575 33.2165 133.965 33.3574 133.41 33.6284C132.92 33.8909 132.492 34.2557 132.156 34.6981C131.822 35.1371 131.571 35.6331 131.414 36.1621C131.256 36.6706 131.174 37.1997 131.171 37.7323C131.171 38.2695 131.253 38.8035 131.414 39.3159C131.574 39.8447 131.826 40.3416 132.156 40.7843C132.489 41.2322 132.917 41.6006 133.41 41.8628C133.956 42.1489 134.565 42.2914 135.182 42.277" fill="white"/>
<path d="M108.489 12.717C108.427 12.7768 108.268 12.9385 107.989 13.2198C107.634 13.556 107.239 13.8469 106.813 14.0857C106.195 14.4366 105.538 14.7131 104.855 14.9096C103.928 15.169 102.967 15.2914 102.005 15.2729C100.951 15.2863 99.9042 15.0906 98.9262 14.697C98.0347 14.3328 97.2286 13.7875 96.5586 13.0958C95.8896 12.3954 95.3764 11.5613 95.0526 10.6485C94.6904 9.63315 94.512 8.56147 94.5255 7.48359C94.516 6.48248 94.6949 5.48852 95.0526 4.55348C95.3862 3.67812 95.8872 2.87619 96.5276 2.19256C97.1681 1.51863 97.938 0.9808 98.7911 0.611228C99.7103 0.217785 100.702 0.0208883 101.701 0.0331793C102.834 -0.00103251 103.958 0.243872 104.975 0.746328C105.832 1.19156 106.572 1.83458 107.132 2.62222C107.684 3.41299 108.083 4.30017 108.308 5.23783C108.549 6.21307 108.671 7.21419 108.669 8.21888V8.73713H98.1134C98.1045 9.23528 98.2243 9.7273 98.4611 10.1656C98.688 10.5871 98.9958 10.9597 99.3669 11.2619C99.7433 11.5688 100.172 11.8059 100.632 11.9618C101.082 12.1193 101.556 12.2009 102.033 12.2032C102.637 12.2132 103.24 12.147 103.827 12.0061C104.278 11.8985 104.718 11.7464 105.139 11.5521C105.455 11.4057 105.752 11.222 106.024 11.005C106.246 10.8101 106.43 10.6529 106.552 10.5333L108.489 12.717ZM105.019 6.14366C105.013 5.36996 104.717 4.6266 104.191 4.05959C103.896 3.74948 103.542 3.5017 103.15 3.33094C102.694 3.1308 102.199 3.03182 101.701 3.04081C101.17 3.03173 100.643 3.13043 100.151 3.33094C99.7319 3.50183 99.3482 3.74889 99.0192 4.05959C98.7279 4.34212 98.4926 4.67729 98.326 5.04737C98.1697 5.39569 98.0882 5.77294 98.0868 6.15474L105.019 6.14366Z" fill="white"/>
<path d="M127.488 7.63641C127.481 6.63022 127.669 5.63225 128.041 4.69744C128.398 3.79926 128.924 2.97815 129.592 2.27894C130.274 1.57781 131.089 1.01988 131.99 0.637815C133.97 -0.174194 136.19 -0.174194 138.169 0.637815C139.071 1.01819 139.887 1.57634 140.568 2.27894C141.235 2.97787 141.762 3.79905 142.118 4.69744C142.859 6.58513 142.859 8.68327 142.118 10.571C141.762 11.4746 141.235 12.3016 140.568 13.0072C139.891 13.7194 139.075 14.2841 138.169 14.666C136.19 15.478 133.97 15.478 131.99 14.666C131.086 14.2818 130.269 13.7165 129.592 13.005C128.925 12.2989 128.398 11.4721 128.041 10.5687C127.666 9.63615 127.476 8.63946 127.481 7.6342L127.488 7.63641ZM135.084 12.1678C135.7 12.1829 136.31 12.0403 136.856 11.7536C137.348 11.4917 137.776 11.1241 138.11 10.6773C138.438 10.2358 138.688 9.74145 138.849 9.21552C139.008 8.70327 139.089 8.17035 139.091 7.6342C139.086 7.10261 139.005 6.57446 138.849 6.06616C138.693 5.53905 138.442 5.04459 138.11 4.60664C137.772 4.16589 137.345 3.80199 136.856 3.53913C136.302 3.27093 135.694 3.13162 135.079 3.13162C134.463 3.13162 133.855 3.27093 133.301 3.53913C132.812 3.80079 132.384 4.16489 132.048 4.60664C131.714 5.04407 131.464 5.53868 131.308 6.06616C131.152 6.57431 131.071 7.10263 131.069 7.6342C131.069 8.17032 131.149 8.7034 131.308 9.21552C131.468 9.74183 131.719 10.2364 132.048 10.6773C132.38 11.1252 132.808 11.4929 133.301 11.7536C133.847 12.0402 134.457 12.1828 135.073 12.1678" fill="white"/>
<path d="M50.0823 7.69181V7.65416C50.0823 3.44615 53.287 0 57.8782 0C60.6976 0 62.3852 0.927978 63.7738 2.2834L61.6809 4.6709C60.527 3.63661 59.3532 3.00098 57.856 3.00098C55.3357 3.00098 53.5218 5.07398 53.5218 7.61208V7.65416C53.5218 10.1923 55.2936 12.3051 57.856 12.3051C59.5658 12.3051 60.6134 11.6274 61.7872 10.571L63.8801 12.6684C62.3409 14.294 60.6333 15.3083 57.7497 15.3083C53.3512 15.3083 50.0823 11.9486 50.0823 7.69624" fill="white"/>
<path d="M72.1965 0.247803H68.7017V15.0512H72.1965V0.247803Z" fill="white"/>
<path d="M77.4519 0.247803H80.8825V6.10581H87.2034V0.247803H90.6319V15.0512H87.2034V8.90303H80.8825V15.0512H77.4519V0.247803Z" fill="white"/>
<path d="M111.745 0.247803H118.688C120.398 0.247803 121.745 0.712899 122.6 1.55893C122.935 1.88462 123.2 2.27636 123.376 2.70941C123.553 3.14246 123.637 3.60741 123.625 4.07488V4.11032C123.625 5.78024 122.726 6.71265 121.658 7.3062C123.388 7.95955 124.458 8.95397 124.458 10.9428V10.9849C124.458 13.6935 122.243 15.0445 118.861 15.0445H111.745V0.247803ZM120.356 4.62636C120.356 3.65187 119.588 3.10483 118.199 3.10483H114.95V6.23205H117.984C119.437 6.23205 120.356 5.76917 120.356 4.66622V4.62636ZM118.755 8.93847H114.95V12.1964H118.861C120.312 12.1964 121.189 11.687 121.189 10.5885V10.5464C121.189 9.55195 120.442 8.93847 118.753 8.93847" fill="white"/>
<path d="M142.807 21.6377H49.9581V23.6952H142.807V21.6377Z" fill="white"/>
</svg>
