<svg width="56" height="56" viewBox="0 0 56 56" fill="none" xmlns="http://www.w3.org/2000/svg">
<path d="M31.2751 31.7175C30.4501 31.7686 29.8661 31.608 29.4865 31.2138C29.2164 30.9363 29.0411 30.5275 28.9535 29.9946C30.0194 29.8121 30.8151 29.1185 30.8151 28.2936C30.8151 27.3226 29.7274 26.5415 28.3841 26.5415C27.0408 26.5415 25.9531 27.3299 25.9531 28.2936C25.9531 29.1112 26.7269 29.7902 27.7709 29.9873C27.6833 30.5202 27.5081 30.9363 27.2379 31.2138C26.8583 31.608 26.267 31.7759 25.4493 31.7175C25.15 31.6956 24.8872 31.9292 24.8653 32.2285C24.8434 32.5278 25.077 32.7906 25.3763 32.8126C25.4931 32.8199 25.61 32.8271 25.7268 32.8271C26.705 32.8271 27.4789 32.5424 28.0264 31.9803C28.1578 31.8489 28.2673 31.6956 28.3622 31.535C28.4644 31.6956 28.5739 31.8489 28.698 31.9803C29.2456 32.5424 30.0194 32.8271 30.9977 32.8271C31.1145 32.8271 31.224 32.8199 31.3481 32.8126C31.6474 32.7906 31.881 32.5351 31.8591 32.2285C31.8372 31.9219 31.5598 31.6956 31.2751 31.7175Z" fill="#EE2536"/>
<path d="M42.4593 4.74199C32.7206 -0.120076 23.1206 -0.506997 13.6957 4.30397C7.97951 -7.31097 -6.7454 7.96877 5.67988 12.5023C0.423595 26.6578 6.17631 33.7684 18.2877 36.7981C12.3525 43.8722 12.6664 47.1719 17.4189 47.7925L18.1636 49.968C17.5211 55.7718 20.6676 56.7136 25.9312 54.9396H29.6617C34.5384 57.1735 36.9913 55.8448 37.2395 51.2748L38.6704 47.2376C44.7662 45.3687 42.963 41.5214 37.9258 36.8638C50.6723 34.2356 54.8262 26.5921 50.5993 14.0646C63.2728 9.89608 50.3511 -5.9458 42.4593 4.74199ZM6.35882 11.0787C0.905421 7.79356 8.09632 -0.726009 12.3233 5.30412C9.72431 6.6474 7.724 8.5674 6.35882 11.0787ZM17.616 26.7381C16.3093 26.7381 15.258 25.6796 15.258 24.3801C15.258 23.0733 16.3166 22.022 17.616 22.022C18.9228 22.022 19.9741 23.0806 19.9741 24.3801C19.9741 25.6868 18.9228 26.7381 17.616 26.7381ZM29.3989 53.8518H26.2305C26.6977 49.968 25.2085 47.6173 21.5729 46.9529C22.4562 43.1348 24.7339 40.2512 28.333 38.2362C32.027 40.4483 34.261 43.3976 34.6187 47.2741C30.494 47.4275 28.5667 49.4643 29.3989 53.8518ZM28.3768 34.9511C24.6171 34.9511 21.5729 32.7536 21.5729 30.0452C21.5729 27.3367 24.6171 25.1393 28.3768 25.1393C32.1365 25.1393 35.1808 27.3367 35.1808 30.0452C35.1808 32.7536 32.1365 34.9511 28.3768 34.9511ZM38.2616 26.7381C36.9548 26.7381 35.9036 25.6796 35.9036 24.3801C35.9036 23.0733 36.9621 22.022 38.2616 22.022C39.5684 22.022 40.6196 23.0806 40.6196 24.3801C40.6269 25.6868 39.5684 26.7381 38.2616 26.7381ZM50.4533 11.9256C49.0954 9.41425 47.0878 7.50155 44.4888 6.15097C48.7085 0.120838 55.9067 8.64041 50.4533 11.9256Z" fill="#EE2536"/>
</svg>
