<svg width="63" height="54" viewBox="0 0 63 54" fill="none" xmlns="http://www.w3.org/2000/svg">
<path d="M38.7693 45.1848L30.1974 53.7568L4.44955 28.0089C-8.0522 10.9451 13.5097 -7.75154 30.1974 5.11838C44.9482 -6.26286 63.5007 7.02325 58.9786 22.0462C56.3694 20.0052 53.0879 18.7727 49.5103 18.7727C41.0104 18.7727 34.1192 25.6638 34.1192 34.1637C34.1192 38.4937 35.904 42.3915 38.7693 45.1848ZM62.1481 34.1717C62.1481 41.151 56.4895 46.8096 49.5103 46.8096C42.5311 46.8096 36.8725 41.151 36.8725 34.1717C36.8725 27.1925 42.5311 21.5339 49.5103 21.5339C56.4895 21.5339 62.1481 27.1925 62.1481 34.1717ZM53.4481 37.0451C53.4481 35.1722 52.3596 34.0837 50.1906 33.1953C48.3577 32.4349 47.5814 31.8907 47.5814 30.7942C47.5814 29.9538 48.1897 28.9854 49.8144 28.9854C51.159 28.9854 52.0234 29.4496 52.4636 29.6977L52.9919 28.313C52.3836 27.9529 51.5192 27.6167 50.2626 27.5767V25.5358H48.958V27.6567C47.0211 27.9689 45.7805 29.2975 45.7805 31.0423C45.7805 32.8751 47.1092 33.8356 49.2462 34.684C50.7989 35.3163 51.6232 36.0286 51.6232 37.1891C51.6232 38.3897 50.6148 39.2461 49.1181 39.2461C47.9416 39.2461 46.845 38.8459 46.0927 38.3417L45.5885 39.7503C46.3248 40.2786 47.5894 40.6547 48.8059 40.6787V42.7997H50.1346V40.6227C52.2955 40.2625 53.4481 38.7018 53.4481 37.0451Z" fill="#EE2742"/>
</svg>
