<svg width="31" height="26" viewBox="0 0 31 26" fill="none" xmlns="http://www.w3.org/2000/svg">
    <path fill-rule="evenodd" clip-rule="evenodd" d="M19.7526 19.3097L15.1602 14.7173L15.7663 14.1111L20.3587 18.7036C20.7338 19.0786 21.3544 19.0786 21.7294 18.7036C22.1044 18.3285 22.1044 17.7079 21.7294 17.3329L20.4155 16.0191L21.0217 15.4129L22.3355 16.7268C23.0453 17.4366 23.0453 18.5999 22.3355 19.3097C21.6257 20.0195 20.4624 20.0195 19.7526 19.3097Z" fill="white"/>
    <path fill-rule="evenodd" clip-rule="evenodd" d="M19.0576 17.3777L20.3714 18.6916C21.0812 19.4014 21.0812 20.5647 20.3714 21.2745C19.6616 21.9843 18.4983 21.9843 17.7885 21.2745L18.3946 20.6684C18.7696 21.0434 19.3902 21.0434 19.7652 20.6684C20.1403 20.2934 20.1403 19.6728 19.7652 19.2977L18.4514 17.9839L19.0576 17.3777Z" fill="white"/>
    <path fill-rule="evenodd" clip-rule="evenodd" d="M11.1982 11.4267C11.1728 11.4521 11.1728 11.4941 11.1982 11.5196C11.8987 12.2201 13.0497 12.2201 13.7501 11.5196L16.414 8.85577C17.0635 8.20624 18.1304 8.20624 18.78 8.85577L24.3849 14.4607C24.6754 14.7512 24.8563 15.108 24.9277 15.4811C27.3479 13.0179 27.3346 9.07623 24.8877 6.62933C22.4274 4.16902 18.4559 4.16902 15.9956 6.62933L11.1982 11.4267ZM24.3849 17.2365C23.6148 18.0066 22.3792 18.0066 21.6091 17.2365L17.1251 12.7526L17.7313 12.1464L22.2153 16.6304C22.6505 17.0657 23.3435 17.0657 23.7787 16.6304C24.214 16.1951 24.214 15.5022 23.7787 15.0669L18.1738 9.46193C17.8591 9.14717 17.3349 9.14717 17.0201 9.46193L14.3563 12.1258C13.321 13.161 11.6273 13.161 10.5921 12.1258C10.2318 11.7655 10.2318 11.1808 10.5921 10.8205L15.3894 6.02317C18.1845 3.2281 22.6988 3.2281 25.4938 6.02317C28.2889 8.81825 28.2889 13.3325 25.4938 16.1276L24.3849 17.2365Z" fill="white"/>
    <path fill-rule="evenodd" clip-rule="evenodd" d="M6.44937 6.62939C3.98907 9.08969 3.98907 13.0612 6.44937 15.5215L9.23376 18.3059L8.62761 18.912L5.84322 16.1276C3.04815 13.3326 3.04815 8.81831 5.84322 6.02324C8.63829 3.22816 13.1526 3.22816 15.9476 6.02324L15.3415 6.62939C12.8812 4.16909 8.90968 4.16908 6.44937 6.62939Z" fill="white"/>
    <path fill-rule="evenodd" clip-rule="evenodd" d="M12.9582 20.6597C12.5831 21.0347 12.5831 21.6553 12.9582 22.0303C13.3332 22.4053 13.9538 22.4053 14.3288 22.0303L15.7391 20.62C16.1324 20.2267 16.1298 19.6236 15.7457 19.2559L15.7424 19.2527L15.7391 19.2494C15.3641 18.8744 14.7435 18.8743 14.3684 19.2494L12.9582 20.6597ZM12.352 22.6364C11.6422 21.9266 11.6422 20.7633 12.352 20.0535L13.7623 18.6432C14.471 17.9345 15.6318 17.9334 16.3419 18.6399C17.0875 19.3573 17.0598 20.5116 16.3452 21.2262L14.935 22.6364C14.2252 23.3462 13.0618 23.3462 12.352 22.6364Z" fill="white"/>
    <path fill-rule="evenodd" clip-rule="evenodd" d="M14.9474 22.6487C14.5724 23.0237 14.5724 23.6443 14.9474 24.0193C15.3225 24.3943 15.943 24.3943 16.3181 24.0193L17.7283 22.609C18.1192 22.2181 18.1093 21.603 17.7352 21.2451L17.7317 21.2418L17.7283 21.2384C17.3533 20.8634 16.7327 20.8634 16.3577 21.2384L14.9474 22.6487ZM14.3413 24.6255C13.6315 23.9157 13.6315 22.7523 14.3413 22.0425L15.7516 20.6322C16.4602 19.9236 17.621 19.9224 18.3311 20.6289C19.0624 21.332 19.0514 22.4983 18.3345 23.2152L16.9242 24.6255C16.2144 25.3353 15.0511 25.3353 14.3413 24.6255Z" fill="white"/>
    <path fill-rule="evenodd" clip-rule="evenodd" d="M9.00505 16.7063C8.63002 17.0813 8.63002 17.7019 9.00505 18.0769C9.38008 18.4519 10.0007 18.4519 10.3757 18.0769L11.786 16.6666C12.1769 16.2757 12.167 15.6606 11.7928 15.3027L11.7893 15.2994L11.786 15.296C11.4109 14.921 10.7904 14.921 10.4153 15.296L9.00505 16.7063ZM8.3989 18.6831C7.6891 17.9733 7.6891 16.8099 8.3989 16.1001L9.80917 14.6899C10.5178 13.9812 11.6786 13.9801 12.3887 14.6865C13.12 15.3896 13.109 16.5559 12.3921 17.2728L10.9818 18.6831C10.272 19.3929 9.10869 19.3929 8.3989 18.6831Z" fill="white"/>
    <path fill-rule="evenodd" clip-rule="evenodd" d="M10.9826 18.6828C10.6076 19.0579 10.6076 19.6785 10.9826 20.0535C11.3576 20.4285 11.9782 20.4285 12.3532 20.0535L13.7635 18.6432C14.1544 18.2523 14.1445 17.6371 13.7703 17.2792L13.7669 17.2759L13.7635 17.2726C13.3885 16.8975 12.7679 16.8975 12.3929 17.2726L10.9826 18.6828ZM10.3764 20.6596C9.66664 19.9498 9.66664 18.7865 10.3764 18.0767L11.7867 16.6664C12.4954 15.9577 13.6562 15.9566 14.3663 16.6631C15.0976 17.3662 15.0866 18.5325 14.3697 19.2494L12.9594 20.6596C12.2496 21.3694 11.0862 21.3694 10.3764 20.6596Z" fill="white"/>
</svg>
