<svg width="22" height="18" viewBox="0 0 22 18" fill="none" xmlns="http://www.w3.org/2000/svg">
    <path d="M21.5086 2.5917C20.7105 2.92883 19.86 3.1525 18.9735 3.26111C19.8856 2.73664 20.5818 1.9122 20.9092 0.918594C20.0587 1.40712 19.1198 1.75192 18.1192 1.9445C17.3115 1.11602 16.1609 0.603271 14.9051 0.603271C12.4693 0.603271 10.5081 2.50772 10.5081 4.84216C10.5081 5.17807 10.5374 5.50107 10.6099 5.80872C6.95272 5.63672 3.71595 3.94827 1.54175 1.37603C1.16199 2.01031 0.939411 2.73664 0.939411 3.51829C0.939411 4.98589 1.72408 6.28715 2.89355 7.04013C2.18684 7.02721 1.49313 6.82938 0.905878 6.51809C0.905878 6.53101 0.905878 6.54797 0.905878 6.56452C0.905878 8.62401 2.43079 10.3347 4.43104 10.7287C4.07307 10.8232 3.68241 10.8684 3.2775 10.8684C2.99582 10.8684 2.71163 10.8531 2.44462 10.7961C3.01469 12.4745 4.63224 13.7083 6.55577 13.7483C5.05894 14.8764 3.15804 15.5559 1.10079 15.5559C0.739889 15.5559 0.39408 15.5405 0.0478516 15.4977C1.99654 16.7077 4.30613 17.3989 6.79679 17.3989C14.8929 17.3989 19.3193 10.9391 19.3193 5.33957C19.3193 5.15223 19.3126 4.97136 19.3034 4.79169C20.1765 4.19496 20.9104 3.44965 21.5086 2.5917Z" fill="#FFF9E6"/>
</svg>
