<svg width="20" height="22" viewBox="0 0 20 22" fill="none" xmlns="http://www.w3.org/2000/svg">
    <path d="M19.0641 12.6343C19.6811 7.4395 18.7676 4.16012 17.1196 2.67698L17.1204 2.67617C14.4608 0.142602 5.47795 -0.232323 2.29594 2.7897C0.866939 4.26758 0.363538 6.43714 0.308188 9.12262C0.252838 11.8093 0.187388 16.8417 4.87718 18.2069H4.88162L4.87718 20.292C4.87718 20.292 4.84526 21.1368 5.38502 21.3065C6.00195 21.5065 6.28153 21.1142 8.201 18.8218C11.4109 19.1001 13.8758 18.4622 14.1558 18.3693C14.8038 18.1519 18.471 17.6667 19.0641 12.6343ZM8.51694 17.3548C8.51694 17.3548 6.48556 19.888 5.85368 20.5457C5.64683 20.7594 5.42017 20.7396 5.42341 20.3154C5.42341 20.0371 5.43876 16.8542 5.43876 16.8542C1.46286 15.7149 1.69719 11.4295 1.74042 9.18766C1.78365 6.94498 2.19372 5.10834 3.40374 3.87165C6.19548 1.25404 14.0705 1.83946 16.0772 3.72499C18.53 5.8994 17.6569 12.0432 17.6622 12.2525C17.158 16.4535 14.1861 16.7197 13.6398 16.9015C13.4067 16.9791 11.2388 17.5366 8.51694 17.3548Z" fill="#FFF9E6"/>
    <path d="M9.64233 4.36328C9.31063 4.36328 9.31063 4.88042 9.64233 4.88486C12.2167 4.90466 14.337 6.69929 14.3604 9.99079C14.3604 10.3382 14.8691 10.3338 14.8646 9.98634H14.8638C14.8359 6.43951 12.5209 4.38308 9.64233 4.36328Z" fill="#FFF9E6"/>
    <path d="M13.0293 9.44499C13.0216 9.788 13.529 9.80456 13.5335 9.45711C13.5759 7.50128 12.3699 5.89048 10.1038 5.72079C9.7721 5.69655 9.73736 6.21813 10.0686 6.24237C12.0338 6.39145 13.0689 7.73237 13.0293 9.44499Z" fill="#FFF9E6"/>
    <path d="M12.486 11.6693C12.0602 11.4229 11.6267 11.5764 11.4473 11.8184L11.0724 12.3036C10.8821 12.5501 10.5257 12.5173 10.5257 12.5173C7.92794 11.8305 7.23344 9.11191 7.23344 9.11191C7.23344 9.11191 7.20153 8.74386 7.43949 8.5467L7.90855 8.15884C8.14288 7.97259 8.29115 7.52454 8.05238 7.08417C7.41444 5.93192 6.98619 5.53437 6.76802 5.22934C6.53894 4.94249 6.19392 4.87785 5.83556 5.07177H5.82788C5.08247 5.50771 4.26596 6.32422 4.52736 7.16457C4.97299 8.05057 5.79192 10.875 8.40145 13.009C9.62803 14.0183 11.5689 15.0525 12.3927 15.2913L12.4004 15.3034C13.2124 15.5741 14.0019 14.7261 14.4233 13.9581V13.952C14.6103 13.5807 14.5481 13.2288 14.275 12.9989C13.791 12.5262 13.0601 12.0047 12.486 11.6693Z" fill="#FFF9E6"/>
    <path d="M10.4586 7.64469C11.2868 7.69277 11.6884 8.12547 11.7316 9.0143C11.747 9.36175 12.2512 9.33751 12.2358 8.99006C12.1805 7.83013 11.5757 7.18371 10.486 7.12311C10.1543 7.10331 10.1232 7.62489 10.4586 7.64469Z" fill="#FFF9E6"/>
</svg>
