<svg width="19" height="20" viewBox="0 0 19 20" fill="none" xmlns="http://www.w3.org/2000/svg">
    <path d="M15.8125 14.1466C15.0525 14.1466 14.3675 14.4428 13.8475 14.9197L6.7225 10.748C6.7775 10.5221 6.8125 10.2861 6.8125 10.0452C6.8125 9.80422 6.7775 9.56827 6.7225 9.34237L13.7725 5.21084C14.3075 5.71285 15.0225 6.0241 15.8125 6.0241C17.4675 6.0241 18.8125 4.67369 18.8125 3.01205C18.8125 1.3504 17.4675 0 15.8125 0C14.1575 0 12.8125 1.3504 12.8125 3.01205C12.8125 3.25301 12.8475 3.48896 12.9025 3.71486L5.8525 7.84639C5.3175 7.34438 4.6025 7.03313 3.8125 7.03313C2.1575 7.03313 0.8125 8.38353 0.8125 10.0452C0.8125 11.7068 2.1575 13.0572 3.8125 13.0572C4.6025 13.0572 5.3175 12.746 5.8525 12.244L12.9775 16.4157C12.9275 16.6265 12.8975 16.8474 12.8975 17.0733C12.8975 18.6898 14.2025 20 15.8125 20C17.4225 20 18.7275 18.6898 18.7275 17.0733C18.7275 15.4568 17.4225 14.1466 15.8125 14.1466Z" fill="#FFF9E6"/>
</svg>
