<svg width="118" height="89" viewBox="0 0 118 89" fill="none" xmlns="http://www.w3.org/2000/svg">
    <path d="M5.26841 44.6169L3.32778 44.7754L2.13965 46.1219L0.9911 47.6269L0.595026 49.2903L0.39702 50.9537L0.198983 52.6171L0.000976562 54.2409V55.7459V57.2509V58.7559V60.5777V62.2411V63.7461L0.436633 65.0927L0.75345 66.7561V68.2215L0.951487 69.7265L1.30792 71.2315L2.13965 72.4592L3.4862 73.3701L4.91198 73.6474H6.85261L8.79328 73.3701L10.5755 72.6176L11.526 71.2315L10.2983 70.8354L8.99128 71.7067L7.05065 72.3008H5.0704L3.52581 71.3899L3.12977 69.8849L2.7337 68.4591L2.53569 66.8749L2.13965 65.4095V63.8649V62.36V60.855V59.35L2.21884 57.5678L4.15948 57.7262H6.10014L8.51601 57.8054L8.35762 56.4192L6.41696 56.142H4.2387L2.29804 56.3004L1.98122 54.7162V53.2112L2.13965 51.7062L2.53569 50.2012V48.5378L2.7337 47.0328L3.92186 45.8447L5.86249 45.2506L7.80315 45.3694L9.7834 45.8447L10.7735 47.1913V48.8547L10.5755 50.3597H12.3973L12.3181 48.6963L11.922 47.1913L10.9319 45.8447L9.38733 44.7754L7.24866 44.6169H5.26841Z" fill="#53284F"/>
    <path d="M23.8804 45.762L21.8605 46.1977L21.9398 47.7423L22.1378 49.0889L22.019 50.6334L22.217 52.2969V53.9603V55.4653V56.9702L22.019 58.4752L21.6625 59.9802L21.5041 61.4852L21.1477 62.9902V64.4952L20.5932 66.0002L20.2368 67.5051L19.8803 69.0101L19.5239 70.5151L18.4149 71.8617L20.0783 72.1785H21.8605H23.8408L25.623 72.0201L25.5042 70.8716L25.4646 69.327L25.623 67.822L25.821 66.317V64.812L25.623 63.1486L25.4646 61.6436V59.703V58.1584V56.495V54.99V53.485L25.2666 51.98L25.0685 50.5542L25.029 48.8512L25.5042 47.4651L25.623 46.1185L23.8804 45.762ZM23.9992 44.8115L26.5339 45.4848L26.4151 47.4651L26.3359 48.97L26.6132 50.7523L26.5339 52.1384L26.6924 53.6434V55.3068V56.8118V58.4752V59.9802L26.8904 61.4852V63.1486V64.9704V66.7923V68.2973V69.8022L27.2072 71.3864L27.3656 72.2973L29.9003 72.535L31.2865 73.129L30.9697 75.2281L31.0489 77.3272L30.8509 78.6341L31.0885 80.2975L29.3063 80.456L29.5439 78.3173L29.6231 77.2876L29.3459 75.1885L29.1083 74.0796L26.1775 73.3667H24.3953H22.6131H20.8308H18.8506H17.0684L15.2465 73.4855L15.405 75.743L15.6822 77.8024L15.1673 80.2975L13.5039 80.456L14.1376 78.1193L13.8208 75.6638V74.1588L13.5039 72.3766L15.1277 72.0993L16.8703 71.8617L18.4941 69.1686L18.8506 67.6636L19.0486 66.1586L19.405 64.6536L19.7615 62.9902L20.316 61.0495L20.4744 59.5446V58.0396V56.2177V54.5543L20.6724 53.0493V51.3859L21.0289 49.881L20.7912 48.4552L20.5536 46.7126V45.2076L23.9992 44.8115Z" fill="#53284F"/>
    <path d="M35.7232 44.1846L36.2777 45.6103L36.0797 47.1945V48.6995V50.2045L36.2777 51.8679L36.4361 53.4917L36.6737 54.9967L36.4361 57.6502L38.2183 57.7295L42.0204 58.0463L43.8026 57.6106V56.1057V54.6007V53.0957V51.5907V50.0857V48.4223L43.6442 46.7589L43.8026 45.2539L45.6244 45.8876V47.5114V49.0164V50.5214V52.0263V53.5313V55.0363V56.5413V58.0463V59.5513V61.3731V62.8781V64.3831V65.8881L45.7829 67.3931V68.898V70.403L46.4166 73.1754L44.9115 73.2546L44.3571 71.7496V70.2446V68.7396V67.2346V65.7297V64.2247V62.7197V61.2147L43.6838 59.1948L42.2184 59.2344H39.8421L38.0599 58.9176L36.6341 59.1156L36.9906 61.6107L36.6341 62.9969V64.9376V66.2445L36.4757 67.8683L36.9906 69.1357V70.6407V72.4625V73.9675L35.0499 73.611L35.4064 72.7001L35.4856 71.0763L35.2084 69.2941V67.7891L35.0103 66.2841V64.7791V63.1157V61.4919L34.8519 59.2344L34.6539 57.7295V56.2245V54.7195V53.2145V51.5511V49.7293V47.1945L34.2578 44.3034L35.7232 44.1846Z" fill="#53284F"/>
    <path d="M54.3389 61.3269L55.9627 61.4853L57.5865 61.3269H59.3687L61.3489 61.0101L62.7747 60.6932L62.8539 59.1882L62.4182 57.5248V56.0198V54.5148L62.0618 53.0099L61.7054 51.5049L61.4281 49.7623L60.7548 48.2969L59.5667 46.9899L57.5469 46.3562L56.0023 47.1483L54.9329 48.3365L54.4181 49.9999L53.8636 51.8217L53.6656 53.4851V54.9901V56.4951V58.0001V59.8219V61.3269H54.3389ZM51.4873 73.644L51.8437 71.8222V70.1588L52.2002 68.6538V66.9904L52.0418 65.327V63.6636V62.1586V60.3368V58.5149V56.9703L52.2002 55.3069V53.6435V52.1385L52.3982 50.3167L53.1111 48.6533L53.824 46.7127L54.8933 45.5245L56.8736 45.0889H58.6558L60.5964 45.6433L62.0618 46.5939L62.9727 47.9404L63.6856 49.4454L63.8836 51.1088L64.0817 52.9306V54.4356V55.9406V57.4456L64.2797 58.9506V60.614V62.2774V63.7824V65.2874V66.9508L64.4381 68.6142L64.9926 71.3073L65.151 73.248L63.5272 73.4064L63.3292 71.9014V70.3964V68.8518L63.1311 67.03L63.0123 65.6042L62.9727 64.02V61.921L61.1905 62.0794L59.4083 62.2378H57.6261H55.8438L53.8636 62.3962L54.022 64.4953L53.8636 66.0003L53.6656 67.5053V69.0103V70.5152L53.4676 72.0202L52.7547 73.9609L51.4873 73.644Z" fill="#53284F"/>
    <path d="M71.4904 44.1846L71.4509 45.4915L71.8469 47.1945V48.6995V50.2045L72.0449 51.8679L71.9657 53.1749V55.0759L72.2033 57.6502L74.0252 57.7295L77.7876 58.0463L79.6095 57.6106V56.1057V54.6007V53.0957V51.5907V50.0857V48.4223L79.4114 46.7589L79.6095 45.2539L81.3917 45.8876V47.5114V49.0164V50.5214V52.0263V53.5313V55.0363V56.5413V58.0463V59.5513V61.3731V62.8781V64.3831V65.8881L81.5501 67.3931V68.898V70.403L82.1838 73.1754L80.6788 73.2546L80.1243 71.7496V70.2446V68.7396V67.2346V65.7297V64.2247V62.7197V61.2147L79.451 59.1948L77.9856 59.2344H75.6094L73.8271 58.9176L72.4014 59.1156L72.2826 61.6107L72.0053 62.9573V64.8979L72.2826 66.5217V67.8683L72.4014 69.3337L72.2033 70.6011L72.7578 72.4625L72.6786 75.5913L71.1736 75.0368V72.7001L71.2528 71.0763L70.9756 69.2941V67.7891L70.7775 66.2841V64.7791V63.1157V61.4919L70.6191 59.2344L70.4211 57.7295V56.2245V54.7195V53.2145V51.5511V49.7293V47.1945L70.2627 44.2638L71.4904 44.1846Z" fill="#53284F"/>
    <path d="M89.98 44.1846L90.5345 45.6103L90.3365 47.1945V48.6995V50.2045L90.5345 51.8679L90.6929 53.4917L90.9306 54.9967L90.6929 57.6502L92.4751 57.7295L96.2772 58.0463L98.0594 57.6106V56.1057V54.6007V53.0957V51.5907V50.0857V48.4223L97.901 46.7589L98.0594 45.2539L99.8813 45.8876V47.5114V49.0164V50.5214V52.0263V53.5313V55.0363V56.5413V58.0463V59.5513V61.3731V62.8781V64.3831V65.8881L100.04 67.3931V68.898V70.403L100.673 73.1754L99.1684 73.2546L98.6139 71.7496V70.2446V68.7396V67.2346V65.7297V64.2247V62.7197V61.2147L97.9406 59.1948L96.4752 59.2344H94.0989L92.3167 58.9176L90.8909 59.1156L91.2474 61.6107L90.8909 62.9969V64.9376V66.2445L90.7325 67.8683L91.2474 69.1357V70.6407V72.4625V73.9675L89.3067 73.611L89.6632 72.7001L89.7424 71.0763L89.4652 69.2941V67.7891L89.2672 66.2841V64.7791V63.1157V61.4919L89.1087 59.2344L88.9107 57.7295V56.2245V54.7195V53.2145V51.5511V49.7293V47.1945L88.5146 44.3034L89.98 44.1846Z" fill="#53284F"/>
    <path d="M115.608 46.1197H113.469H111.687L109.707 46.4365L108.994 47.9415V49.6049L108.835 51.1099V52.7733V54.2783V55.7833L109.35 57.2883L110.618 59.1101L112.281 59.9418L114.974 59.5854L114.935 58.3576L115.133 56.8526V55.3476L115.291 53.8426V52.1792V50.6346V49.1297L115.489 47.6247L115.608 46.1197ZM117.034 45.9613L116.836 47.4662V48.9712V50.4762L116.638 52.2981V53.803V55.4664V56.9714V58.4764L116.836 59.9814V61.8032L117.192 63.3082V64.8132L117.667 66.635L117.865 68.14V69.645V71.15V72.655L117.746 74.16L115.964 73.0906V71.5857V70.0411V68.5361L115.806 67.0311L115.608 65.0904L115.449 63.2686V61.7636L115.251 60.4567L112.4 60.8527L111.33 62.0409L110.934 63.6251L110.816 65.2489L110.261 66.7539L109.905 68.2588L109.627 69.7638L109.667 71.5857L108.954 72.9322L107.489 73.8431L106.38 73.2887L107.766 72.0609L108.558 70.952L108.637 69.2886L108.835 67.7836L108.954 66.437L109.429 64.8528L109.509 63.2686L110.182 61.7636L111.291 60.6547L109.469 59.7042L108.439 57.8427L107.885 56.3378L107.687 54.8328V53.3278V51.8228L107.885 50.3178L108.083 48.8128L108.281 47.3078L109.35 45.8028L111.132 45.3672H112.915H114.697H116.479L117.034 45.9613Z" fill="#53284F"/>
    <path d="M70.7388 73.3296C71.0557 68.2206 70.5012 39.8238 70.0259 33.4475C69.9467 32.0613 70.1447 30.5563 69.9863 29.1305L69.7883 28.4572C68.7982 28.6949 68.2833 30.1998 67.6496 31.0315C66.2634 32.7742 62.3822 37.5268 60.2831 37.5664C60.2831 35.9822 61.2732 35.9426 62.4614 34.9524C63.2139 34.3188 64.1644 33.4078 64.7981 32.695C65.4318 31.9425 68.6002 28.378 68.719 27.1503C67.7288 27.2295 62.501 30.0414 60.9564 30.6355C58.4613 31.6256 56.2038 32.6554 53.7087 33.4078C52.679 33.7247 53.1146 33.7247 52.5205 33.289C52.5997 32.1405 53.7879 32.1009 54.8176 31.6652C56.6791 30.8731 58.6197 30.3583 60.4811 29.5266L62.5406 28.6949C63.3723 28.2988 62.8574 28.8137 63.0951 28.0612C62.2634 27.7839 55.9662 28.1404 54.3028 28.1404C52.6394 28.1404 51.4512 27.982 49.8274 27.9028C49.1541 27.8632 48.2828 27.9424 47.6491 27.8236C46.9759 27.7047 46.4214 27.5067 46.461 26.5562C47.3323 26.0017 49.9462 26.9522 51.2136 27.0315C54.3424 27.2295 65.1941 27.3087 66.9367 25.5265C66.6595 24.5759 65.7882 24.5759 64.8377 24.2591C61.5109 23.2294 58.3821 21.8432 55.2137 20.2986C54.3424 19.863 53.8671 19.5065 52.9562 19.1105C52.1641 18.754 51.57 18.358 50.7779 17.8827C49.7086 17.2886 48.9957 17.2886 48.9165 15.9025C50.6195 15.9025 55.9662 20.1006 56.9563 19.5461C56.6791 18.8728 53.7879 16.5758 52.8374 15.6252C52.1641 14.9123 51.6096 14.1995 50.9364 13.447C50.4215 12.8529 49.3918 12.0212 49.7482 10.6746C50.6591 10.5954 51.0552 11.7836 51.5304 12.3776C53.2334 14.4767 55.0157 16.2589 57.1543 18.0015C59.3722 19.7837 63.7684 23.3086 66.6199 23.3086C66.3031 22.4769 63.2139 19.9422 62.5406 19.1501C61.2732 17.6847 60.0851 16.3381 58.7385 14.3975C57.0355 11.942 55.2929 9.20923 54.3424 5.96163C54.0255 4.85269 53.4314 2.83284 54.9364 3.07047C55.2533 3.94178 55.0949 5.01111 55.5305 6.15965C55.8078 6.91215 56.2434 7.98148 56.5999 8.69437C58.0256 11.6251 63.8475 20.0214 65.9466 20.6947C65.7882 19.7441 64.6397 17.7243 64.1644 16.6154C63.0555 14.0014 59.6098 4.81308 60.996 2.59521L61.5505 2.516C62.0653 3.50612 61.7089 4.06059 61.9465 5.44676C62.699 10.0805 64.0852 14.4371 66.1843 18.4372C66.7783 19.5461 67.8873 22.2393 68.8774 22.4769C68.9962 21.1699 68.8378 21.0115 68.5209 19.9422C67.8873 17.7243 67.61 14.0806 67.4912 11.7043C67.3724 9.01121 66.1842 2.31797 66.9763 0.100098C68.2437 0.218912 67.808 1.01101 67.8477 2.5556C67.8873 5.80321 68.1645 8.77358 68.4813 12.0608C68.6002 13.1697 68.7189 13.9618 68.917 14.9123C69.115 15.8629 69.0358 16.9322 69.1546 18.0411C69.2734 19.1501 69.5507 19.7441 69.7883 20.6947C70.0655 21.9224 69.7883 22.8729 70.818 22.9918C71.7289 22.8333 73.432 17.0114 73.9468 15.7044C74.7389 13.645 75.4914 8.89239 75.5706 6.5161C75.6498 3.70415 74.6993 1.24864 74.7389 0.100098C77.6301 0.298122 76.4419 10.0805 76.0459 11.7836C75.6894 13.447 75.0558 15.4668 74.5409 17.1698C74.1052 18.754 72.7587 21.1699 72.7191 22.3977C74.5013 21.9224 77.7093 13.447 78.343 10.635C78.7786 8.61516 79.4519 6.67452 79.7291 4.65467C79.8876 3.54573 79.6895 2.15955 80.7985 2.04074C81.2737 2.83284 80.9173 3.98138 80.7985 4.81309C80.6004 6.47649 79.3727 11.0311 78.937 12.4172C78.4222 13.9618 77.9073 15.6648 77.3132 17.0906C76.7984 18.3184 75.5706 20.2194 75.4122 21.3283C78.0657 20.6551 82.5411 13.5262 83.65 10.3182L84.6798 6.31807C84.8778 5.44676 84.8382 5.52597 85.5115 5.36755C85.9867 6.12005 85.6699 6.91215 85.4718 7.78345C85.2738 8.69437 85.1154 9.28844 84.8382 10.0409C83.5312 13.7242 81.6698 16.6946 79.3331 19.4273C79.2539 19.5461 79.0559 19.7441 79.0162 19.8234L78.937 20.1006C78.937 20.1006 78.937 20.1402 78.937 20.1798C79.848 20.6155 85.1946 12.9717 85.7887 11.9816C86.462 10.8726 86.9769 9.20923 88.2838 9.16963C88.2442 11.2291 84.7986 15.3084 83.65 16.8926C81.5906 19.7441 79.5311 21.0511 77.7885 23.1502C79.6499 23.1898 83.9669 19.863 85.1946 18.7144C86.2639 17.7639 87.3729 16.7738 88.2838 15.744C88.9571 14.9916 90.5809 12.8529 91.4126 12.6945C91.967 13.8034 90.9373 14.4767 90.4621 15.0708C89.8284 15.8233 89.3927 16.2985 88.6006 17.0906C85.1946 20.4174 81.9074 22.9521 77.7093 24.7344C76.838 25.0908 75.531 24.9324 74.7785 25.6057C75.1746 26.5562 75.729 26.3186 76.7984 26.5166C79.3331 26.9918 82.4619 27.1107 84.957 26.6354C86.6996 26.279 88.0858 26.1601 89.5512 25.4076C90.5017 24.9324 90.8185 24.9324 91.5314 24.3383C92.2839 23.7046 92.4423 23.2294 93.5117 23.1898C93.6305 24.8136 91.9671 25.4869 90.8977 26.0017C88.2046 27.3879 85.551 27.8632 82.5015 27.8632C81.6698 27.8632 78.2638 27.5067 77.9073 28.18C78.1449 28.7345 83.0559 30.081 83.5312 30.1602C86.2243 30.4375 88.6799 29.8434 90.7789 29.9622C90.7393 31.19 90.066 31.3088 89.0363 31.388C87.1353 31.5068 85.0758 31.5464 83.1748 31.3484C81.7094 31.19 77.8677 29.5662 76.5607 28.9325C75.6102 28.4572 73.1151 27.0315 72.3626 26.9918C72.5606 28.18 74.5013 30.3187 75.1746 31.1108C80.1252 36.8931 86.8976 37.0911 87.6897 37.6852C88.2046 38.1208 87.8878 37.606 88.0066 38.3585C87.2937 38.8733 86.0659 38.5565 85.3134 38.2793C81.9866 37.0119 82.8183 38.0416 78.3826 35.3485C77.2736 34.6752 75.5706 33.2098 74.7785 32.3781C74.2637 31.784 73.7092 31.19 73.2735 30.5563C72.7983 29.883 72.323 28.9325 71.5705 28.8929C71.3725 31.2692 71.8478 34.8732 71.8478 37.4079C71.8478 40.3783 71.8478 43.5467 71.9666 46.3983C72.2834 52.0222 72.0062 64.1413 71.927 69.8444C71.927 69.8444 72.6398 71.6266 72.6398 74.5178C72.6002 81.3298 71.2141 78.9931 70.7388 73.3296Z" fill="#53284F"/>
    <path d="M71.4091 75.9019V76.4564C71.4487 76.496 71.5279 76.892 71.5675 76.9316L71.6863 77.1297C71.8843 77.3277 72.2804 77.2881 72.4784 77.0108C72.5576 76.892 72.5576 76.892 72.6368 76.4564L72.6764 75.5059C73.4289 76.496 73.6666 78.0406 73.7458 78.8723C73.9042 80.7733 73.5081 82.1991 73.3101 83.9417C73.1517 85.5259 73.3101 87.8626 72.518 88.6943C71.5279 88.3775 71.6071 86.9913 71.3695 85.8824C71.1715 84.8526 70.9734 83.8229 70.815 82.714C69.7853 76.4168 70.6566 78.1594 70.9734 75.1494C70.9734 75.1494 71.4091 75.9019 71.4091 75.9019Z" fill="#35A936"/>
</svg>
