<svg width="19" height="19" viewBox="0 0 19 19" fill="none" xmlns="http://www.w3.org/2000/svg">
    <path fill-rule="evenodd" clip-rule="evenodd" d="M17.6572 18.6525C17.8769 18.8722 18.233 18.8722 18.4527 18.6525C18.6724 18.4329 18.6724 18.0767 18.4527 17.857L10.4978 9.90208L18.4527 1.94707C18.6724 1.7274 18.6724 1.37124 18.4527 1.15157C18.2331 0.931899 17.8769 0.931899 17.6573 1.15157L9.70231 9.10658L1.74735 1.15157C1.52768 0.931899 1.17153 0.931899 0.951861 1.15157C0.732192 1.37124 0.732192 1.7274 0.951861 1.94707L8.90681 9.90208L0.951921 17.857C0.732252 18.0767 0.732252 18.4329 0.951921 18.6525C1.17159 18.8722 1.52774 18.8722 1.74741 18.6525L9.70231 10.6976L17.6572 18.6525Z" fill="#EE2742"/>
</svg>
