<svg width="72" height="25" viewBox="0 0 72 25" fill="none" xmlns="http://www.w3.org/2000/svg">
<path d="M24.981 0.616699V2.1001H20.1207V0.616699H24.981ZM26.3687 0.616699V10.5698H24.482V0.616699H26.3687ZM19.8199 0.616699H21.6929L21.4468 5.58643C21.4104 6.32015 21.3443 6.96273 21.2486 7.51416C21.1529 8.06559 21.023 8.53727 20.859 8.9292C20.6949 9.31657 20.4898 9.63102 20.2437 9.87256C19.9976 10.1141 19.706 10.2918 19.3687 10.4058C19.036 10.5151 18.6487 10.5698 18.2066 10.5698H17.7349V9.09326L18.0015 9.06592C18.234 9.04769 18.4345 8.99072 18.6031 8.89502C18.7763 8.79932 18.9244 8.65576 19.0474 8.46436C19.1705 8.26839 19.2707 8.01774 19.3482 7.7124C19.4302 7.40706 19.494 7.03564 19.5396 6.59814C19.5897 6.16064 19.6262 5.64795 19.649 5.06006L19.8199 0.616699ZM36.356 5.34033V5.85303C36.356 6.60498 36.2558 7.28174 36.0552 7.8833C35.8547 8.48031 35.5699 8.98844 35.2008 9.40771C34.8316 9.82699 34.3918 10.1483 33.8814 10.3716C33.371 10.5949 32.8036 10.7065 32.1793 10.7065C31.564 10.7065 30.9989 10.5949 30.484 10.3716C29.9735 10.1483 29.5315 9.82699 29.1578 9.40771C28.7841 8.98844 28.4947 8.48031 28.2896 7.8833C28.0845 7.28174 27.982 6.60498 27.982 5.85303V5.34033C27.982 4.58382 28.0845 3.90706 28.2896 3.31006C28.4947 2.71305 28.7818 2.20492 29.1509 1.78564C29.5201 1.36182 29.9599 1.03825 30.4703 0.814941C30.9853 0.591634 31.5504 0.47998 32.1656 0.47998C32.7899 0.47998 33.3573 0.591634 33.8677 0.814941C34.3782 1.03825 34.8179 1.36182 35.1871 1.78564C35.5608 2.20492 35.8479 2.71305 36.0484 3.31006C36.2535 3.90706 36.356 4.58382 36.356 5.34033ZM34.4556 5.85303V5.32666C34.4556 4.78434 34.4055 4.30811 34.3052 3.89795C34.205 3.48324 34.0569 3.1346 33.8609 2.85205C33.6649 2.5695 33.4234 2.35758 33.1363 2.21631C32.8492 2.07048 32.5256 1.99756 32.1656 1.99756C31.801 1.99756 31.4774 2.07048 31.1949 2.21631C30.9169 2.35758 30.6799 2.5695 30.484 2.85205C30.288 3.1346 30.1376 3.48324 30.0328 3.89795C29.9325 4.30811 29.8824 4.78434 29.8824 5.32666V5.85303C29.8824 6.39079 29.9325 6.86702 30.0328 7.28174C30.1376 7.69645 30.288 8.04736 30.484 8.33447C30.6845 8.61702 30.926 8.83122 31.2086 8.97705C31.4911 9.12288 31.8147 9.1958 32.1793 9.1958C32.5439 9.1958 32.8674 9.12288 33.15 8.97705C33.4325 8.83122 33.6695 8.61702 33.8609 8.33447C34.0569 8.04736 34.205 7.69645 34.3052 7.28174C34.4055 6.86702 34.4556 6.39079 34.4556 5.85303ZM44.3951 0.616699V2.1001H39.8424V10.5698H37.9693V0.616699H44.3951ZM53.3502 5.34033V5.85303C53.3502 6.60498 53.2499 7.28174 53.0494 7.8833C52.8489 8.48031 52.564 8.98844 52.1949 9.40771C51.8258 9.82699 51.386 10.1483 50.8756 10.3716C50.3651 10.5949 49.7978 10.7065 49.1734 10.7065C48.5582 10.7065 47.9931 10.5949 47.4781 10.3716C46.9677 10.1483 46.5256 9.82699 46.1519 9.40771C45.7782 8.98844 45.4888 8.48031 45.2838 7.8833C45.0787 7.28174 44.9761 6.60498 44.9761 5.85303V5.34033C44.9761 4.58382 45.0787 3.90706 45.2838 3.31006C45.4888 2.71305 45.7759 2.20492 46.1451 1.78564C46.5142 1.36182 46.954 1.03825 47.4644 0.814941C47.9794 0.591634 48.5445 0.47998 49.1597 0.47998C49.7841 0.47998 50.3515 0.591634 50.8619 0.814941C51.3723 1.03825 51.8121 1.36182 52.1812 1.78564C52.5549 2.20492 52.842 2.71305 53.0425 3.31006C53.2476 3.90706 53.3502 4.58382 53.3502 5.34033ZM51.4498 5.85303V5.32666C51.4498 4.78434 51.3996 4.30811 51.2994 3.89795C51.1991 3.48324 51.051 3.1346 50.855 2.85205C50.6591 2.5695 50.4175 2.35758 50.1304 2.21631C49.8433 2.07048 49.5198 1.99756 49.1597 1.99756C48.7952 1.99756 48.4716 2.07048 48.189 2.21631C47.911 2.35758 47.6741 2.5695 47.4781 2.85205C47.2821 3.1346 47.1317 3.48324 47.0269 3.89795C46.9267 4.30811 46.8765 4.78434 46.8765 5.32666V5.85303C46.8765 6.39079 46.9267 6.86702 47.0269 7.28174C47.1317 7.69645 47.2821 8.04736 47.4781 8.33447C47.6786 8.61702 47.9202 8.83122 48.2027 8.97705C48.4853 9.12288 48.8088 9.1958 49.1734 9.1958C49.538 9.1958 49.8616 9.12288 50.1441 8.97705C50.4267 8.83122 50.6636 8.61702 50.855 8.33447C51.051 8.04736 51.1991 7.69645 51.2994 7.28174C51.3996 6.86702 51.4498 6.39079 51.4498 5.85303ZM8.69099 14.6167V24.5698H6.8111V16.1001H2.60017V24.5698H0.720284V14.6167H8.69099ZM14.5836 16.1274L11.7467 24.5698H9.75739L13.4761 14.6167H14.7476L14.5836 16.1274ZM16.9556 24.5698L14.105 16.1274L13.9342 14.6167H15.2125L18.9517 24.5698H16.9556ZM16.8258 20.8716V22.355H11.4869V20.8716H16.8258ZM23.8052 20.9399H21.2418V19.4634H23.8052C24.2245 19.4634 24.564 19.395 24.8238 19.2583C25.0881 19.117 25.2818 18.9256 25.4049 18.6841C25.5279 18.438 25.5894 18.1577 25.5894 17.8433C25.5894 17.5379 25.5279 17.2531 25.4049 16.9888C25.2818 16.7244 25.0881 16.5103 24.8238 16.3462C24.564 16.1821 24.2245 16.1001 23.8052 16.1001H21.857V24.5698H19.9771V14.6167H23.8052C24.58 14.6167 25.2408 14.7557 25.7877 15.0337C26.3391 15.3071 26.7584 15.6877 27.0455 16.1753C27.3371 16.6584 27.483 17.2098 27.483 17.8296C27.483 18.4722 27.3371 19.0259 27.0455 19.4907C26.7584 19.9556 26.3391 20.3133 25.7877 20.564C25.2408 20.8146 24.58 20.9399 23.8052 20.9399ZM33.232 14.6167V24.5698H31.359V14.6167H33.232ZM36.3218 14.6167V16.1001H28.3033V14.6167H36.3218ZM44.1763 18.7251V20.2017H38.94V18.7251H44.1763ZM39.4527 14.6167V24.5698H37.5728V14.6167H39.4527ZM45.5709 14.6167V24.5698H43.691V14.6167H45.5709ZM54.0816 23.0933V24.5698H48.7906V23.0933H54.0816ZM49.3648 14.6167V24.5698H47.4849V14.6167H49.3648ZM53.3912 18.7251V20.1675H48.7906V18.7251H53.3912ZM54.0611 14.6167V16.1001H48.7906V14.6167H54.0611ZM59.2154 20.9399H56.6519V19.4634H59.2154C59.6347 19.4634 59.9742 19.395 60.234 19.2583C60.4983 19.117 60.692 18.9256 60.815 18.6841C60.9381 18.438 60.9996 18.1577 60.9996 17.8433C60.9996 17.5379 60.9381 17.2531 60.815 16.9888C60.692 16.7244 60.4983 16.5103 60.234 16.3462C59.9742 16.1821 59.6347 16.1001 59.2154 16.1001H57.2672V24.5698H55.3873V14.6167H59.2154C59.9901 14.6167 60.6509 14.7557 61.1978 15.0337C61.7493 15.3071 62.1685 15.6877 62.4556 16.1753C62.7473 16.6584 62.8931 17.2098 62.8931 17.8296C62.8931 18.4722 62.7473 19.0259 62.4556 19.4907C62.1685 19.9556 61.7493 20.3133 61.1978 20.564C60.6509 20.8146 59.9901 20.9399 59.2154 20.9399ZM67.2476 16.1274L64.4107 24.5698H62.4215L66.1402 14.6167H67.4117L67.2476 16.1274ZM69.6197 24.5698L66.7691 16.1274L66.5982 14.6167H67.8765L71.6158 24.5698H69.6197ZM69.4898 20.8716V22.355H64.1509V20.8716H69.4898Z" fill="#868686"/>
</svg>
