<svg width="87" height="73" viewBox="0 0 87 73" fill="none" xmlns="http://www.w3.org/2000/svg">
<path fill-rule="evenodd" clip-rule="evenodd" d="M55.6776 53.9051L42.4219 40.6494L44.1715 38.8998L57.4272 52.1555C58.5097 53.238 60.301 53.238 61.3835 52.1555C62.466 51.073 62.466 49.2817 61.3835 48.1993L57.5911 44.4069L59.3408 42.6573L63.1331 46.4496C65.1819 48.4984 65.1819 51.8563 63.1331 53.9051C61.0843 55.9539 57.7264 55.9539 55.6776 53.9051Z" fill="white"/>
<path fill-rule="evenodd" clip-rule="evenodd" d="M53.6698 48.3284L57.4622 52.1208C59.5109 54.1695 59.5109 57.5275 57.4622 59.5763C55.4134 61.625 52.0555 61.625 50.0067 59.5763L51.7563 57.8266C52.8388 58.9091 54.6301 58.9091 55.7125 57.8266C56.795 56.7441 56.795 54.9529 55.7125 53.8704L51.9202 50.0781L53.6698 48.3284Z" fill="white"/>
<path fill-rule="evenodd" clip-rule="evenodd" d="M30.9854 31.1512C30.9119 31.2248 30.9119 31.346 30.9854 31.4196C33.0073 33.4414 36.3294 33.4414 38.3513 31.4196L46.0403 23.7305C47.9151 21.8557 50.9947 21.8557 52.8696 23.7305L69.0478 39.9088C69.8864 40.7474 70.4086 41.7772 70.6144 42.8541C77.6003 35.7443 77.5618 24.3669 70.499 17.3041C63.3975 10.2026 51.9341 10.2026 44.8326 17.3041L30.9854 31.1512ZM69.0478 47.9209C66.825 50.1437 63.2584 50.1437 61.0356 47.9209L48.093 34.9784L49.8427 33.2287L62.7852 46.1713C64.0417 47.4278 66.0417 47.4278 67.2982 46.1713C68.5546 44.9149 68.5546 42.9149 67.2982 41.6584L51.1199 25.4802C50.2114 24.5716 48.6985 24.5716 47.7899 25.4802L40.1009 33.1692C37.1128 36.1573 32.224 36.1573 29.2358 33.1692C28.196 32.1294 28.196 30.4414 29.2358 29.4016L43.083 15.5544C51.1508 7.48667 64.1809 7.48667 72.2486 15.5544C80.3164 23.6222 80.3164 36.6523 72.2486 44.7201L69.0478 47.9209Z" fill="white"/>
<path fill-rule="evenodd" clip-rule="evenodd" d="M17.2773 17.304C10.1758 24.4055 10.1758 35.8689 17.2773 42.9704L25.3142 51.0073L23.5646 52.757L15.5276 44.72C7.45987 36.6522 7.45987 23.6222 15.5276 15.5544C23.5954 7.48661 36.6255 7.48661 44.6933 15.5544L42.9437 17.304C35.8422 10.2025 24.3788 10.2025 17.2773 17.304Z" fill="white"/>
<path fill-rule="evenodd" clip-rule="evenodd" d="M36.0653 57.8019C34.9828 58.8844 34.9828 60.6757 36.0653 61.7582C37.1477 62.8406 38.939 62.8406 40.0215 61.7582L44.0922 57.6875C45.2273 56.5523 45.22 54.8115 44.1114 53.7501L44.1017 53.7408L44.0922 53.7313C43.0097 52.6488 41.2184 52.6488 40.1359 53.7313L36.0653 57.8019ZM34.3156 63.5078C32.2669 61.459 32.2669 58.1011 34.3156 56.0523L38.3863 51.9816C40.4319 49.936 43.7825 49.9329 45.8322 51.9721C47.9842 54.0426 47.9044 57.3745 45.8418 59.4371L41.7711 63.5078C39.7223 65.5566 36.3644 65.5566 34.3156 63.5078Z" fill="white"/>
<path fill-rule="evenodd" clip-rule="evenodd" d="M41.8055 63.5424C40.723 64.6249 40.723 66.4161 41.8055 67.4986C42.888 68.5811 44.6793 68.5811 45.7617 67.4986L49.8324 63.428C50.9607 62.2997 50.9321 60.5241 49.852 59.491L49.8421 59.4815L49.8324 59.4717C48.7499 58.3892 46.9586 58.3892 45.8761 59.4717L41.8055 63.5424ZM40.0559 69.2483C38.0071 67.1995 38.0071 63.8415 40.0559 61.7928L44.1265 57.7221C46.1721 55.6766 49.5226 55.6733 51.5723 57.7124C53.6831 59.742 53.6513 63.1083 51.582 65.1776L47.5114 69.2483C45.4626 71.297 42.1047 71.297 40.0559 69.2483Z" fill="white"/>
<path fill-rule="evenodd" clip-rule="evenodd" d="M24.6531 46.39C23.5707 47.4725 23.5707 49.2638 24.6531 50.3463C25.7356 51.4288 27.5269 51.4288 28.6094 50.3463L32.6801 46.2756C33.8084 45.1473 33.7798 43.3717 32.6997 42.3386L32.6898 42.3291L32.68 42.3194C31.5976 41.2369 29.8063 41.2369 28.7238 42.3194L24.6531 46.39ZM22.9035 52.0959C20.8547 50.0471 20.8547 46.6892 22.9035 44.6404L26.9742 40.5698C29.0197 38.5242 32.3703 38.521 34.4199 40.5601C36.5307 42.5897 36.499 45.9559 34.4297 48.0253L30.359 52.0959C28.3102 54.1447 24.9523 54.1447 22.9035 52.0959Z" fill="white"/>
<path fill-rule="evenodd" clip-rule="evenodd" d="M30.3592 52.0961C29.2767 53.1786 29.2767 54.9699 30.3592 56.0523C31.4417 57.1348 33.233 57.1348 34.3155 56.0523L38.3861 51.9817C39.5144 50.8534 39.4858 49.0778 38.4058 48.0447L38.3958 48.0352L38.3861 48.0254C37.3036 46.943 35.5123 46.943 34.4299 48.0254L30.3592 52.0961ZM28.6096 57.802C26.5608 55.7532 26.5608 52.3953 28.6096 50.3465L32.6802 46.2758C34.7258 44.2303 38.0763 44.227 40.126 46.2661C42.2368 48.2957 42.205 51.662 40.1357 53.7313L36.0651 57.802C34.0163 59.8507 30.6584 59.8507 28.6096 57.802Z" fill="white"/>
</svg>
