<svg width="39" height="46" viewBox="0 0 39 46" fill="none" xmlns="http://www.w3.org/2000/svg">
    <path d="M24.0961 0.756348H4.25189V13.0867H6.17851V2.68297H23.3255L36.876 15.5913V43.9127H6.17851V32.353H28.2705V18.3528H6.17851H4.25189H0.591309V32.353H4.25189V45.8393H38.8027V14.7565L24.0961 0.756348Z" fill="white"/>
    <path d="M8.13696 23.2977V28.2967H9.18318V26.7204H10.1185C11.1717 26.7204 11.9027 26.0345 11.9027 25.009C11.9027 23.9801 11.1959 23.2977 10.1705 23.2977H8.13696ZM9.18318 24.1256H9.89337C10.4927 24.1256 10.8391 24.4444 10.8391 25.0125C10.8391 25.5841 10.4892 25.9028 9.8899 25.9028H9.18318V24.1256Z" fill="#EE2536"/>
    <path d="M12.7356 23.2977V28.2967H14.6445C16.1445 28.2967 17.0279 27.3648 17.0279 25.7781C17.0279 24.1915 16.1445 23.2977 14.6445 23.2977H12.7356ZM13.7818 24.1603H14.5197C15.4413 24.1603 15.9609 24.7354 15.9609 25.7816C15.9609 26.8624 15.4551 27.4306 14.5197 27.4306H13.7818V24.1603Z" fill="#EE2536"/>
    <path d="M18.9625 28.2967V26.3289H20.9961V25.501H18.9625V24.1603H21.1901V23.2977H17.9163V28.2967H18.9625Z" fill="#EE2536"/>
</svg>
