<svg width="61" height="41" viewBox="0 0 61 41" fill="none" xmlns="http://www.w3.org/2000/svg">
    <path fill-rule="evenodd" clip-rule="evenodd" d="M28.7532 13.8306L28.7501 13.8344C28.5933 6.26532 22.4085 0.177734 14.8019 0.177734C7.0968 0.177734 0.850586 6.42394 0.850586 14.129C0.850586 21.8341 7.0968 28.0803 14.8019 28.0803C16.5145 28.0803 18.1551 27.7717 19.671 27.2071C19.0614 32.4272 15.2664 36.7573 9.52131 38.487L10.1551 40.1777C22.3833 36.2097 28.7869 26.4896 28.7532 13.8306Z" fill="#EE2742"/>
    <path fill-rule="evenodd" clip-rule="evenodd" d="M60.7532 13.8306L60.7501 13.8344C60.5933 6.26532 54.4085 0.177734 46.8019 0.177734C39.0968 0.177734 32.8506 6.42394 32.8506 14.129C32.8506 21.8341 39.0968 28.0803 46.8019 28.0803C48.5145 28.0803 50.1551 27.7717 51.671 27.2071C51.0614 32.4272 47.2664 36.7573 41.5213 38.487L42.1551 40.1777C54.3833 36.2097 60.7869 26.4896 60.7532 13.8306Z" fill="#EE2742"/>
</svg>
