<svg width="61" height="41" viewBox="0 0 61 41" fill="none" xmlns="http://www.w3.org/2000/svg">
    <path fill-rule="evenodd" clip-rule="evenodd" d="M32.2478 26.5249L32.2508 26.5211C32.4077 34.0902 38.5925 40.1777 46.1991 40.1777C53.9042 40.1777 60.1504 33.9315 60.1504 26.2264C60.1504 18.5213 53.9042 12.2751 46.1991 12.2751C44.4865 12.2751 42.8459 12.5837 41.33 13.1483C41.9396 7.92822 45.7346 3.59821 51.4797 1.86848L50.8458 0.177734C38.6176 4.14574 32.2141 13.8659 32.2478 26.5249Z" fill="#EE2742"/>
    <path fill-rule="evenodd" clip-rule="evenodd" d="M0.247791 26.5249L0.250841 26.5211C0.407677 34.0902 6.59247 40.1777 14.1991 40.1777C21.9042 40.1777 28.1504 33.9315 28.1504 26.2264C28.1504 18.5213 21.9042 12.2751 14.1991 12.2751C12.4865 12.2751 10.8459 12.5837 9.33001 13.1483C9.93962 7.92822 13.7346 3.59821 19.4797 1.86848L18.8458 0.177734C6.61764 4.14574 0.214098 13.8659 0.247791 26.5249Z" fill="#EE2742"/>
</svg>
