<svg width="43" height="44" viewBox="0 0 43 44" fill="none" xmlns="http://www.w3.org/2000/svg">
<path d="M32.2362 4.00718C24.8111 0.30022 17.4918 0.00522149 10.3061 3.67322C5.94793 -5.1823 -5.27872 6.46736 4.19463 9.92386C0.187102 20.7164 4.57312 26.1377 13.8071 28.4475C9.28197 33.841 9.52131 36.3568 13.1448 36.83L13.7125 38.4886C13.2227 42.9136 15.6217 43.6316 19.6348 42.2791H22.479C26.1971 43.9823 28.0673 42.9693 28.2565 39.485L29.3474 36.4069C33.9951 34.982 32.6203 32.0488 28.7797 28.4976C38.498 26.4939 41.665 20.6663 38.4423 11.115C48.1049 7.93679 38.2531 -4.14146 32.2362 4.00718ZM4.71227 8.83848C0.554459 6.33378 6.03698 -0.161759 9.2597 4.43577C7.2782 5.45991 5.75312 6.92378 4.71227 8.83848ZM13.2951 20.7776C12.2987 20.7776 11.4972 19.9705 11.4972 18.9798C11.4972 17.9834 12.3043 17.1819 13.2951 17.1819C14.2914 17.1819 15.0929 17.989 15.0929 18.9798C15.0929 19.9761 14.2914 20.7776 13.2951 20.7776ZM22.2786 41.4498H19.863C20.2192 38.4886 19.0837 36.6964 16.3118 36.1899C16.9853 33.2788 18.7219 31.0803 21.466 29.5441C24.2824 31.2306 25.9856 33.4792 26.2583 36.4348C23.1135 36.5517 21.6441 38.1046 22.2786 41.4498ZM21.4994 27.0393C18.6329 27.0393 16.3118 25.364 16.3118 23.299C16.3118 21.234 18.6329 19.5586 21.4994 19.5586C24.3659 19.5586 26.6869 21.234 26.6869 23.299C26.6869 25.364 24.3659 27.0393 21.4994 27.0393ZM29.0357 20.7776C28.0394 20.7776 27.2379 19.9705 27.2379 18.9798C27.2379 17.9834 28.045 17.1819 29.0357 17.1819C30.0321 17.1819 30.8336 17.989 30.8336 18.9798C30.8391 19.9761 30.0321 20.7776 29.0357 20.7776ZM38.331 9.48414C37.2957 7.56943 35.7651 6.11114 33.7836 5.08143C37.0007 0.483899 42.4888 6.97943 38.331 9.48414Z" fill="white"/>
</svg>
