<svg width="43" height="37" viewBox="0 0 43 37" fill="none" xmlns="http://www.w3.org/2000/svg">
<path d="M26.6999 30.9775L20.8391 36.8383L3.2348 19.234C-5.31287 7.56715 9.42939 -5.21605 20.8391 3.58335C30.9244 -4.19821 43.6091 4.88574 40.5173 15.1572C38.7334 13.7617 36.4897 12.919 34.0436 12.919C28.2321 12.919 23.5205 17.6306 23.5205 23.4422C23.5205 26.4027 24.7408 29.0677 26.6999 30.9775ZM42.6843 23.4476C42.6843 28.2195 38.8154 32.0883 34.0436 32.0883C29.2718 32.0883 25.4029 28.2195 25.4029 23.4476C25.4029 18.6758 29.2718 14.807 34.0436 14.807C38.8154 14.807 42.6843 18.6758 42.6843 23.4476ZM36.736 25.4122C36.736 24.1317 35.9917 23.3875 34.5088 22.78C33.2556 22.2602 32.7248 21.8881 32.7248 21.1384C32.7248 20.5638 33.1407 19.9016 34.2516 19.9016C35.1709 19.9016 35.7619 20.219 36.0629 20.3887L36.4241 19.442C36.0082 19.1957 35.4172 18.9659 34.558 18.9385V17.5431H33.666V18.9932C32.3417 19.2066 31.4935 20.115 31.4935 21.308C31.4935 22.5611 32.402 23.2178 33.863 23.7979C34.9247 24.2302 35.4883 24.7172 35.4883 25.5107C35.4883 26.3315 34.7988 26.9171 33.7755 26.9171C32.9711 26.9171 32.2214 26.6434 31.707 26.2987L31.3622 27.2618C31.8657 27.623 32.7303 27.8802 33.5621 27.8966V29.3467H34.4705V27.8583C35.948 27.612 36.736 26.5449 36.736 25.4122Z" fill="white"/>
</svg>
