<svg width="43" height="33" viewBox="0 0 43 33" fill="none" xmlns="http://www.w3.org/2000/svg">
<path d="M39.5906 23.2655C41.7586 22.319 43.2392 23.4347 41.8908 25.6979C34.2975 35.6232 7.76846 35.2477 0.78325 25.46C-0.364208 23.0963 1.29088 21.51 3.31612 22.9271C11.6127 28.9023 30.0408 29.9493 39.5906 23.2655ZM33.6894 7.97844C34.123 11.1247 33.9432 13.9431 32.6107 16.1481C34.4138 18.3055 35.8045 20.6428 36.4602 23.3025C34.8421 24.799 32.3674 25.5869 29.438 26.0046C29.6759 22.7685 29.8345 19.7438 29.3005 18.3743C27.1113 18.4959 26.4398 17.1528 26.1965 15.4025C23.1878 18.1839 19.1637 18.4959 14.5157 17.2903C14.2619 20.3361 13.6485 23.2497 12.5592 25.9993C10.2855 25.4705 8.39772 24.8519 7.02288 24.1116C12.0357 13.9854 13.2995 8.5125 10.1956 8.44905C10.7138 15.6934 4.6698 16.6293 4.11987 11.553V3.72173C4.09871 2.98672 3.65454 2.5637 2.90367 2.37334L3.98238 1.6965L2.90367 0.348098L5.93888 0.75527C11.1632 -0.635427 15.1027 1.49028 18.0903 6.22288C22.2888 5.24992 27.0796 5.58305 32.1982 6.63003C32.9544 3.77461 33.8269 1.31577 35.17 0.353391L39.4901 4.40387C40.2093 5.70467 36.7827 6.83098 33.6894 7.97844ZM7.34015 7.78279C7.34015 7.10595 6.79022 6.55601 6.11338 6.55601C5.43653 6.55601 4.8866 7.10595 4.8866 7.78279C4.8866 8.27985 5.18272 8.70287 5.60574 8.89851V8.27983C5.60574 8.00487 5.82783 7.78279 6.1028 7.78279C6.37777 7.78279 6.59986 8.00487 6.59986 8.27983V8.90908C7.03346 8.72401 7.34015 8.29042 7.34015 7.78279Z" fill="white"/>
</svg>
