<svg width="21" height="48" viewBox="0 0 21 48" fill="none" xmlns="http://www.w3.org/2000/svg">
<path d="M18.495 15.6283V13.2953C18.495 12.2868 17.6804 11.4722 16.6718 11.4722H16.3006C16.3116 11.378 16.3227 11.2838 16.3227 11.184C16.3227 9.44957 14.5827 7.99218 12.211 7.54332V6.25216C13.1087 5.72573 13.7127 4.75044 13.7127 3.63661C13.7127 1.9631 12.3551 0.605469 10.6816 0.605469C9.00804 0.605469 7.6504 1.9631 7.6504 3.63661C7.6504 4.75044 8.25442 5.72573 9.15213 6.25216V7.54332C6.78041 7.99218 5.04039 9.44957 5.04039 11.184C5.04039 11.2782 5.05148 11.3724 5.06256 11.4722H4.69128C3.68274 11.4722 2.86816 12.2868 2.86816 13.2953V15.6283C1.59918 15.8776 0.640503 16.9914 0.640503 18.3325V41.9611C0.640503 45.1252 3.20618 47.6909 6.37033 47.6909H14.9983C18.1625 47.6909 20.7281 45.1252 20.7281 41.9611V18.3325C20.7226 16.9914 19.7639 15.8776 18.495 15.6283ZM17.3978 41.9611C17.3978 43.2855 16.3172 44.3661 14.9928 44.3661H6.3648C5.0404 44.3661 3.95981 43.2855 3.95981 41.9611V18.8977H17.4033V41.9611H17.3978Z" fill="white"/>
<path d="M11.4685 37.6838H14.5827C15.2754 37.6838 15.8406 37.1241 15.8406 36.4259C15.8406 35.7276 15.281 35.168 14.5827 35.168H11.4685C10.7758 35.168 10.2106 35.7276 10.2106 36.4259C10.2106 37.1241 10.7758 37.6838 11.4685 37.6838Z" fill="white"/>
<path d="M11.4685 33.8652H14.5827C15.2754 33.8652 15.8406 33.3055 15.8406 32.6073C15.8406 31.9091 15.281 31.3494 14.5827 31.3494H11.4685C10.7758 31.3494 10.2106 31.9091 10.2106 32.6073C10.2106 33.3055 10.7758 33.8652 11.4685 33.8652Z" fill="white"/>
<path d="M11.4685 30.0417H14.5827C15.2754 30.0417 15.8406 29.482 15.8406 28.7838C15.8406 28.0856 15.281 27.5259 14.5827 27.5259H11.4685C10.7758 27.5259 10.2106 28.0856 10.2106 28.7838C10.2106 29.482 10.7758 30.0417 11.4685 30.0417Z" fill="white"/>
<path d="M11.4685 26.2236H14.5827C15.2754 26.2236 15.8406 25.6639 15.8406 24.9657C15.8406 24.2675 15.281 23.7078 14.5827 23.7078H11.4685C10.7758 23.7078 10.2106 24.2675 10.2106 24.9657C10.2106 25.6639 10.7758 26.2236 11.4685 26.2236Z" fill="white"/>
<path d="M11.4685 22.4057H14.5827C15.2754 22.4057 15.8406 21.846 15.8406 21.1478C15.8406 20.4496 15.281 19.8899 14.5827 19.8899H11.4685C10.7758 19.8899 10.2106 20.4496 10.2106 21.1478C10.2106 21.846 10.7758 22.4057 11.4685 22.4057Z" fill="white"/>
</svg>
