<svg width="43" height="46" viewBox="0 0 43 46" fill="none" xmlns="http://www.w3.org/2000/svg">
<path d="M25.7386 18.8146C26.4525 19.5114 26.8695 20.7222 25.9328 22.0472L21.4438 26.5362L16.9549 22.0472C16.0182 20.7222 16.4352 19.5114 17.149 18.8146C18.0057 17.9751 19.5077 17.621 20.9184 18.7119L21.4438 19.1173L21.9693 18.7119C23.3856 17.621 24.882 17.9751 25.7386 18.8146ZM42.4438 9.88237C41.9584 12.5895 40.2736 14.7826 37.8521 16.6615L34.4996 16.2218L34.8994 34.0692C34.9222 35.1486 34.0827 36.0338 33.0033 36.0967C30.4332 36.2509 26.1156 37.4502 25.1275 43.6183C24.9733 44.5892 24.1509 45.3088 23.1686 45.3088H21.4438H19.7191C18.7368 45.3088 17.9143 44.5892 17.7601 43.6183C16.7721 37.4502 12.4602 36.2509 9.88443 36.0967C8.80501 36.0338 7.96547 35.1486 7.98831 34.0692L8.38808 16.2218L5.03562 16.6615C2.61408 14.7826 0.929298 12.5895 0.443848 9.88237C3.78489 6.60415 7.77699 3.53153 12.3516 0.647387C13.8308 -0.283536 15.7612 0.533162 16.1553 2.23509C17.1833 6.64984 19.148 9.76243 21.4438 10.1965C23.7455 9.76814 25.7101 6.65555 26.7324 2.23509C27.1265 0.533162 29.0568 -0.283536 30.536 0.647387C35.1107 3.53153 39.1028 6.60415 42.4438 9.88237ZM26.938 17.5867C25.6987 16.376 23.517 15.7477 21.4496 16.9928C19.3821 15.7477 17.2004 16.376 15.9611 17.5867C14.6875 18.8318 14.0878 21.0192 15.6184 23.1095L21.4496 28.9577L27.195 23.2123L27.2807 23.1152C28.8113 21.0192 28.2116 18.8318 26.938 17.5867Z" fill="white"/>
</svg>
