<svg width="83" height="76" viewBox="0 0 83 76" fill="none" xmlns="http://www.w3.org/2000/svg">
<path fill-rule="evenodd" clip-rule="evenodd" d="M72.7778 23.1152L38.2763 38.0996L72.7778 53.084C66.9882 66.3965 53.7193 75.7051 38.2763 75.7051C17.5074 75.7051 0.670898 58.8687 0.670898 38.0996C0.670898 17.3306 17.5074 0.494141 38.2763 0.494141C53.7192 0.494141 66.988 9.80273 72.7778 23.1152Z" fill="#C8102E"/>
<path fill-rule="evenodd" clip-rule="evenodd" d="M79.4885 23.0898C81.4921 27.6875 82.6033 32.7637 82.6033 38.0996C82.6033 43.4355 81.4921 48.5117 79.4885 53.1094L44.9634 38.1147L44.9979 38.0996L44.9634 38.0845L79.4885 23.0898Z" fill="#FEEDC8"/>
<path d="M12.1826 37.4131C12.1826 37.859 12.0785 38.235 11.8701 38.541C11.6618 38.8438 11.3753 39.0732 11.0107 39.2295C10.6494 39.3825 10.2393 39.459 9.78027 39.459C9.32129 39.459 8.90951 39.3825 8.54492 39.2295C8.18034 39.0732 7.89225 38.8438 7.68066 38.541C7.46908 38.235 7.36328 37.859 7.36328 37.4131C7.36328 37.1136 7.4235 36.8434 7.54395 36.6025C7.66439 36.3584 7.83203 36.1501 8.04688 35.9775C8.26497 35.8018 8.52051 35.6683 8.81348 35.5771C9.10645 35.4827 9.42546 35.4355 9.77051 35.4355C10.2327 35.4355 10.6462 35.5169 11.0107 35.6797C11.3753 35.8424 11.6618 36.0719 11.8701 36.3682C12.0785 36.6644 12.1826 37.0127 12.1826 37.4131ZM10.7666 37.3203C10.7666 37.1022 10.7243 36.915 10.6396 36.7588C10.5583 36.5993 10.4427 36.4772 10.293 36.3926C10.1432 36.3079 9.96908 36.2656 9.77051 36.2656C9.57194 36.2656 9.39779 36.3079 9.24805 36.3926C9.09831 36.4772 8.98112 36.5993 8.89648 36.7588C8.8151 36.915 8.77441 37.1022 8.77441 37.3203C8.77441 37.5352 8.8151 37.7207 8.89648 37.877C8.98112 38.0332 9.09831 38.1536 9.24805 38.2383C9.40104 38.3197 9.57845 38.3604 9.78027 38.3604C9.9821 38.3604 10.1562 38.3197 10.3027 38.2383C10.4525 38.1536 10.5664 38.0332 10.6445 37.877C10.7259 37.7207 10.7666 37.5352 10.7666 37.3203ZM12.0312 34.1367C12.0312 34.498 11.9352 34.8187 11.7432 35.0986C11.5511 35.3753 11.2842 35.5918 10.9424 35.748C10.6038 35.9043 10.2165 35.9824 9.78027 35.9824C9.34082 35.9824 8.9502 35.9043 8.6084 35.748C8.2666 35.5918 7.99967 35.3753 7.80762 35.0986C7.61556 34.8187 7.51953 34.498 7.51953 34.1367C7.51953 33.707 7.61556 33.3457 7.80762 33.0527C8.00293 32.7565 8.26986 32.5319 8.6084 32.3789C8.9502 32.2259 9.33757 32.1494 9.77051 32.1494C10.21 32.1494 10.599 32.2259 10.9375 32.3789C11.2793 32.5319 11.5462 32.7565 11.7383 33.0527C11.9336 33.3457 12.0312 33.707 12.0312 34.1367ZM10.625 34.2002C10.625 34.0081 10.5908 33.8421 10.5225 33.7021C10.4541 33.5589 10.3564 33.4482 10.2295 33.3701C10.1058 33.292 9.9528 33.2529 9.77051 33.2529C9.59473 33.2529 9.44336 33.2904 9.31641 33.3652C9.19271 33.4401 9.09668 33.5492 9.02832 33.6924C8.96322 33.8324 8.93066 34.0016 8.93066 34.2002C8.93066 34.3923 8.96322 34.5615 9.02832 34.708C9.09668 34.8512 9.19434 34.9635 9.32129 35.0449C9.44824 35.1263 9.60124 35.167 9.78027 35.167C9.95931 35.167 10.1107 35.1263 10.2344 35.0449C10.3613 34.9635 10.4574 34.8512 10.5225 34.708C10.5908 34.5615 10.625 34.3923 10.625 34.2002ZM16.7627 32.1787H16.9678V33.3018H16.8848C16.5137 33.3018 16.1833 33.3571 15.8936 33.4678C15.6038 33.5785 15.3581 33.7363 15.1562 33.9414C14.9577 34.1432 14.8047 34.3874 14.6973 34.6738C14.5931 34.9603 14.541 35.2809 14.541 35.6357V36.8174C14.541 37.0713 14.5654 37.2959 14.6143 37.4912C14.6663 37.6833 14.7396 37.8444 14.834 37.9746C14.9316 38.1016 15.0456 38.1976 15.1758 38.2627C15.306 38.3245 15.4525 38.3555 15.6152 38.3555C15.7682 38.3555 15.9066 38.3229 16.0303 38.2578C16.1572 38.1927 16.2646 38.1016 16.3525 37.9844C16.4437 37.8639 16.512 37.724 16.5576 37.5645C16.6064 37.4017 16.6309 37.2243 16.6309 37.0322C16.6309 36.8402 16.6064 36.6628 16.5576 36.5C16.512 36.3372 16.4437 36.1973 16.3525 36.0801C16.2614 35.9596 16.1507 35.8669 16.0205 35.8018C15.8903 35.7367 15.7438 35.7041 15.5811 35.7041C15.3597 35.7041 15.1644 35.7562 14.9951 35.8604C14.8291 35.9613 14.6989 36.0915 14.6045 36.251C14.5101 36.4105 14.4596 36.5781 14.4531 36.7539L14.0283 36.4805C14.0381 36.2298 14.0902 35.9922 14.1846 35.7676C14.2822 35.543 14.4157 35.3444 14.585 35.1719C14.7575 34.9961 14.9642 34.8594 15.2051 34.7617C15.446 34.6608 15.7178 34.6104 16.0205 34.6104C16.3525 34.6104 16.6439 34.6738 16.8945 34.8008C17.1484 34.9277 17.36 35.1019 17.5293 35.3232C17.6986 35.5446 17.8255 35.8001 17.9102 36.0898C17.9948 36.3796 18.0371 36.6888 18.0371 37.0176C18.0371 37.3626 17.9801 37.6833 17.8662 37.9795C17.7555 38.2757 17.5944 38.5345 17.3828 38.7559C17.1745 38.9772 16.9238 39.1497 16.6309 39.2734C16.3379 39.3971 16.0091 39.459 15.6445 39.459C15.2669 39.459 14.9235 39.3906 14.6143 39.2539C14.3083 39.1139 14.0446 38.9186 13.8232 38.668C13.6019 38.4173 13.431 38.1195 13.3105 37.7744C13.1934 37.4294 13.1348 37.0518 13.1348 36.6416V36.0947C13.1348 35.5218 13.2178 34.9977 13.3838 34.5225C13.5531 34.0439 13.7956 33.6305 14.1113 33.2822C14.4271 32.9307 14.8079 32.6589 15.2539 32.4668C15.6999 32.2747 16.2028 32.1787 16.7627 32.1787ZM18.8574 33.9951V33.6191C18.8574 33.349 18.916 33.1032 19.0332 32.8818C19.1504 32.6605 19.3229 32.4831 19.5508 32.3496C19.7786 32.2161 20.0586 32.1494 20.3906 32.1494C20.7324 32.1494 21.0173 32.2161 21.2451 32.3496C21.4762 32.4831 21.6488 32.6605 21.7627 32.8818C21.8799 33.1032 21.9385 33.349 21.9385 33.6191V33.9951C21.9385 34.2588 21.8799 34.5013 21.7627 34.7227C21.6488 34.944 21.4779 35.1214 21.25 35.2549C21.0221 35.3883 20.7406 35.4551 20.4053 35.4551C20.0667 35.4551 19.7819 35.3883 19.5508 35.2549C19.3229 35.1214 19.1504 34.944 19.0332 34.7227C18.916 34.5013 18.8574 34.2588 18.8574 33.9951ZM19.79 33.6191V33.9951C19.79 34.109 19.8112 34.2181 19.8535 34.3223C19.8991 34.4232 19.9674 34.5062 20.0586 34.5713C20.153 34.6331 20.2669 34.6641 20.4004 34.6641C20.5404 34.6641 20.6543 34.6331 20.7422 34.5713C20.8301 34.5062 20.8952 34.4232 20.9375 34.3223C20.9798 34.2181 21.001 34.109 21.001 33.9951V33.6191C21.001 33.4987 20.9782 33.388 20.9326 33.2871C20.8903 33.1829 20.8236 33.0999 20.7324 33.0381C20.6445 32.973 20.5306 32.9404 20.3906 32.9404C20.2604 32.9404 20.1497 32.973 20.0586 33.0381C19.9674 33.0999 19.8991 33.1829 19.8535 33.2871C19.8112 33.388 19.79 33.4987 19.79 33.6191ZM22.2559 37.9941V37.6182C22.2559 37.3512 22.3145 37.1071 22.4316 36.8857C22.5521 36.6644 22.7262 36.487 22.9541 36.3535C23.1852 36.2201 23.4684 36.1533 23.8037 36.1533C24.1423 36.1533 24.4255 36.2201 24.6533 36.3535C24.8812 36.487 25.0537 36.6644 25.1709 36.8857C25.2881 37.1071 25.3467 37.3512 25.3467 37.6182V37.9941C25.3467 38.2611 25.2881 38.5052 25.1709 38.7266C25.057 38.9479 24.8861 39.1253 24.6582 39.2588C24.4303 39.3923 24.1488 39.459 23.8135 39.459C23.4749 39.459 23.1901 39.3923 22.959 39.2588C22.7279 39.1253 22.5521 38.9479 22.4316 38.7266C22.3145 38.5052 22.2559 38.2611 22.2559 37.9941ZM23.1934 37.6182V37.9941C23.1934 38.1113 23.2194 38.222 23.2715 38.3262C23.3236 38.4303 23.3952 38.5133 23.4863 38.5752C23.5807 38.637 23.6898 38.668 23.8135 38.668C23.9697 38.668 24.0918 38.637 24.1797 38.5752C24.2676 38.5133 24.3278 38.4303 24.3604 38.3262C24.3962 38.222 24.4141 38.1113 24.4141 37.9941V37.6182C24.4141 37.501 24.3913 37.3919 24.3457 37.291C24.3001 37.1868 24.2318 37.1038 24.1406 37.042C24.0527 36.9769 23.9404 36.9443 23.8037 36.9443C23.667 36.9443 23.5531 36.9769 23.4619 37.042C23.374 37.1038 23.3073 37.1868 23.2617 37.291C23.2161 37.3919 23.1934 37.501 23.1934 37.6182ZM24.1504 33.2676L20.6787 38.8242L19.9951 38.4629L23.4668 32.9062L24.1504 33.2676ZM10.3076 48.8271H8.49609V47.6846H10.3076C10.5876 47.6846 10.8154 47.639 10.9912 47.5479C11.167 47.4535 11.2956 47.3232 11.377 47.1572C11.4583 46.9912 11.499 46.804 11.499 46.5957C11.499 46.3841 11.4583 46.1872 11.377 46.0049C11.2956 45.8226 11.167 45.6761 10.9912 45.5654C10.8154 45.4548 10.5876 45.3994 10.3076 45.3994H9.00391V51.3613H7.53906V44.252H10.3076C10.8643 44.252 11.3411 44.3529 11.7383 44.5547C12.1387 44.7533 12.4447 45.0283 12.6562 45.3799C12.8678 45.7314 12.9736 46.1335 12.9736 46.5859C12.9736 47.0449 12.8678 47.4421 12.6562 47.7773C12.4447 48.1126 12.1387 48.3714 11.7383 48.5537C11.3411 48.736 10.8643 48.8271 10.3076 48.8271ZM15.3027 47.2305V51.3613H13.8965V46.0781H15.2197L15.3027 47.2305ZM16.8945 46.0439L16.8701 47.3477C16.8018 47.3379 16.7188 47.3298 16.6211 47.3232C16.5267 47.3135 16.4404 47.3086 16.3623 47.3086C16.1637 47.3086 15.9912 47.3346 15.8447 47.3867C15.7015 47.4355 15.5811 47.5088 15.4834 47.6064C15.389 47.7041 15.3174 47.8229 15.2686 47.9629C15.223 48.1029 15.1969 48.2624 15.1904 48.4414L14.9072 48.3535C14.9072 48.0117 14.9414 47.6976 15.0098 47.4111C15.0781 47.1214 15.1774 46.8691 15.3076 46.6543C15.4411 46.4395 15.6038 46.2734 15.7959 46.1562C15.988 46.0391 16.2077 45.9805 16.4551 45.9805C16.5332 45.9805 16.613 45.987 16.6943 46C16.7757 46.0098 16.8424 46.0244 16.8945 46.0439ZM17.1875 48.7734V48.6709C17.1875 48.2835 17.2428 47.9271 17.3535 47.6016C17.4642 47.2728 17.6253 46.988 17.8369 46.7471C18.0485 46.5062 18.3089 46.319 18.6182 46.1855C18.9274 46.0488 19.2822 45.9805 19.6826 45.9805C20.083 45.9805 20.4395 46.0488 20.752 46.1855C21.0645 46.319 21.3265 46.5062 21.5381 46.7471C21.7529 46.988 21.9157 47.2728 22.0264 47.6016C22.137 47.9271 22.1924 48.2835 22.1924 48.6709V48.7734C22.1924 49.1576 22.137 49.514 22.0264 49.8428C21.9157 50.1683 21.7529 50.4531 21.5381 50.6973C21.3265 50.9382 21.0661 51.1253 20.7568 51.2588C20.4476 51.3923 20.0928 51.459 19.6924 51.459C19.292 51.459 18.9355 51.3923 18.623 51.2588C18.3138 51.1253 18.0518 50.9382 17.8369 50.6973C17.6253 50.4531 17.4642 50.1683 17.3535 49.8428C17.2428 49.514 17.1875 49.1576 17.1875 48.7734ZM18.5938 48.6709V48.7734C18.5938 48.9948 18.6133 49.2015 18.6523 49.3936C18.6914 49.5856 18.7533 49.7549 18.8379 49.9014C18.9258 50.0446 19.0397 50.1569 19.1797 50.2383C19.3197 50.3197 19.4906 50.3604 19.6924 50.3604C19.8877 50.3604 20.0553 50.3197 20.1953 50.2383C20.3353 50.1569 20.4476 50.0446 20.5322 49.9014C20.6169 49.7549 20.6787 49.5856 20.7178 49.3936C20.7601 49.2015 20.7812 48.9948 20.7812 48.7734V48.6709C20.7812 48.4561 20.7601 48.2542 20.7178 48.0654C20.6787 47.8734 20.6152 47.7041 20.5273 47.5576C20.4427 47.4079 20.3304 47.2907 20.1904 47.2061C20.0505 47.1214 19.8812 47.0791 19.6826 47.0791C19.484 47.0791 19.3148 47.1214 19.1748 47.2061C19.0381 47.2907 18.9258 47.4079 18.8379 47.5576C18.7533 47.7041 18.6914 47.8734 18.6523 48.0654C18.6133 48.2542 18.5938 48.4561 18.5938 48.6709ZM26.4014 46.0781H27.6758V51.1855C27.6758 51.6673 27.5684 52.0758 27.3535 52.4111C27.1419 52.7497 26.8457 53.0052 26.4648 53.1777C26.084 53.3535 25.6413 53.4414 25.1367 53.4414C24.9154 53.4414 24.681 53.4121 24.4336 53.3535C24.1895 53.2949 23.9551 53.2038 23.7305 53.0801C23.5091 52.9564 23.3236 52.8001 23.1738 52.6113L23.7939 51.7812C23.9567 51.9701 24.1455 52.1165 24.3604 52.2207C24.5752 52.3281 24.8128 52.3818 25.0732 52.3818C25.3271 52.3818 25.542 52.3346 25.7178 52.2402C25.8936 52.1491 26.0286 52.014 26.123 51.835C26.2174 51.6592 26.2646 51.446 26.2646 51.1953V47.2988L26.4014 46.0781ZM22.8467 48.7832V48.6807C22.8467 48.277 22.8955 47.9108 22.9932 47.582C23.0941 47.25 23.2357 46.9652 23.418 46.7275C23.6035 46.4899 23.8281 46.306 24.0918 46.1758C24.3555 46.0456 24.6533 45.9805 24.9854 45.9805C25.3369 45.9805 25.6315 46.0456 25.8691 46.1758C26.1068 46.306 26.3021 46.4915 26.4551 46.7324C26.6081 46.9701 26.7269 47.2516 26.8115 47.5771C26.8994 47.8994 26.9678 48.2526 27.0166 48.6367V48.8613C26.9678 49.2292 26.8945 49.571 26.7969 49.8867C26.6992 50.2025 26.5706 50.4792 26.4111 50.7168C26.2516 50.9512 26.0531 51.1335 25.8154 51.2637C25.5811 51.3939 25.3011 51.459 24.9756 51.459C24.6501 51.459 24.3555 51.3923 24.0918 51.2588C23.8314 51.1253 23.6084 50.9382 23.4229 50.6973C23.2373 50.4564 23.0941 50.1732 22.9932 49.8477C22.8955 49.5221 22.8467 49.1673 22.8467 48.7832ZM24.2529 48.6807V48.7832C24.2529 49.0013 24.2741 49.2048 24.3164 49.3936C24.3587 49.5824 24.4238 49.75 24.5117 49.8965C24.6029 50.0397 24.7152 50.152 24.8486 50.2334C24.9854 50.3115 25.1465 50.3506 25.332 50.3506C25.5892 50.3506 25.7992 50.2969 25.9619 50.1895C26.1247 50.0788 26.2467 49.9274 26.3281 49.7354C26.4095 49.5433 26.4567 49.3219 26.4697 49.0713V48.4316C26.4632 48.2266 26.4355 48.0426 26.3867 47.8799C26.3379 47.7139 26.2695 47.5723 26.1816 47.4551C26.0938 47.3379 25.9798 47.2467 25.8398 47.1816C25.6999 47.1165 25.5339 47.084 25.3418 47.084C25.1562 47.084 24.9951 47.1263 24.8584 47.2109C24.7249 47.2923 24.6126 47.4046 24.5215 47.5479C24.4336 47.6911 24.3669 47.8604 24.3213 48.0557C24.2757 48.2477 24.2529 48.4561 24.2529 48.6807ZM30.1758 47.2305V51.3613H28.7695V46.0781H30.0928L30.1758 47.2305ZM31.7676 46.0439L31.7432 47.3477C31.6748 47.3379 31.5918 47.3298 31.4941 47.3232C31.3997 47.3135 31.3135 47.3086 31.2354 47.3086C31.0368 47.3086 30.8643 47.3346 30.7178 47.3867C30.5745 47.4355 30.4541 47.5088 30.3564 47.6064C30.262 47.7041 30.1904 47.8229 30.1416 47.9629C30.096 48.1029 30.07 48.2624 30.0635 48.4414L29.7803 48.3535C29.7803 48.0117 29.8145 47.6976 29.8828 47.4111C29.9512 47.1214 30.0505 46.8691 30.1807 46.6543C30.3141 46.4395 30.4769 46.2734 30.6689 46.1562C30.861 46.0391 31.0807 45.9805 31.3281 45.9805C31.4062 45.9805 31.486 45.987 31.5674 46C31.6488 46.0098 31.7155 46.0244 31.7676 46.0439ZM35.1172 50.1699V47.8164C35.1172 47.6471 35.0895 47.5023 35.0342 47.3818C34.9788 47.2581 34.8926 47.1621 34.7754 47.0938C34.6615 47.0254 34.5133 46.9912 34.3311 46.9912C34.1748 46.9912 34.0397 47.0189 33.9258 47.0742C33.8118 47.1263 33.724 47.2028 33.6621 47.3037C33.6003 47.4014 33.5693 47.5169 33.5693 47.6504H32.1631C32.1631 47.4258 32.2152 47.2126 32.3193 47.0107C32.4235 46.8089 32.5749 46.6315 32.7734 46.4785C32.972 46.3223 33.208 46.2002 33.4814 46.1123C33.7581 46.0244 34.0674 45.9805 34.4092 45.9805C34.8193 45.9805 35.1839 46.0488 35.5029 46.1855C35.8219 46.3223 36.0726 46.5273 36.2549 46.8008C36.4404 47.0742 36.5332 47.416 36.5332 47.8262V50.0869C36.5332 50.3766 36.5511 50.6143 36.5869 50.7998C36.6227 50.9821 36.6748 51.1416 36.7432 51.2783V51.3613H35.3223C35.2539 51.2181 35.2018 51.0391 35.166 50.8242C35.1335 50.6061 35.1172 50.388 35.1172 50.1699ZM35.3027 48.1436L35.3125 48.9395H34.5264C34.3408 48.9395 34.1797 48.9606 34.043 49.0029C33.9062 49.0452 33.7939 49.1055 33.7061 49.1836C33.6182 49.2585 33.5531 49.3464 33.5107 49.4473C33.4717 49.5482 33.4521 49.6589 33.4521 49.7793C33.4521 49.8997 33.4798 50.0088 33.5352 50.1064C33.5905 50.2008 33.6702 50.2757 33.7744 50.3311C33.8786 50.3831 34.0007 50.4092 34.1406 50.4092C34.3522 50.4092 34.5361 50.3669 34.6924 50.2822C34.8486 50.1976 34.9691 50.0934 35.0537 49.9697C35.1416 49.846 35.1872 49.7288 35.1904 49.6182L35.5615 50.2139C35.5094 50.3473 35.4378 50.4857 35.3467 50.6289C35.2588 50.7721 35.1465 50.9072 35.0098 51.0342C34.873 51.1579 34.7087 51.2604 34.5166 51.3418C34.3245 51.4199 34.0967 51.459 33.833 51.459C33.4977 51.459 33.1934 51.3923 32.9199 51.2588C32.6497 51.1221 32.4349 50.9349 32.2754 50.6973C32.1191 50.4564 32.041 50.1829 32.041 49.877C32.041 49.6003 32.0931 49.3545 32.1973 49.1396C32.3014 48.9248 32.4544 48.7441 32.6562 48.5977C32.8613 48.4479 33.1169 48.3356 33.4229 48.2607C33.7288 48.1826 34.0837 48.1436 34.4873 48.1436H35.3027ZM39.0234 47.1719V51.3613H37.6123V46.0781H38.9355L39.0234 47.1719ZM38.8281 48.5342H38.4375C38.4375 48.1663 38.4814 47.8278 38.5693 47.5186C38.6605 47.2061 38.7923 46.9359 38.9648 46.708C39.1406 46.4769 39.3571 46.2979 39.6143 46.1709C39.8714 46.0439 40.1693 45.9805 40.5078 45.9805C40.7422 45.9805 40.957 46.0163 41.1523 46.0879C41.3477 46.1562 41.5153 46.2653 41.6553 46.415C41.7985 46.5615 41.9092 46.7536 41.9873 46.9912C42.0654 47.2256 42.1045 47.5072 42.1045 47.8359V51.3613H40.6982V47.9922C40.6982 47.7513 40.6657 47.5658 40.6006 47.4355C40.5355 47.3053 40.4427 47.2142 40.3223 47.1621C40.2051 47.11 40.0635 47.084 39.8975 47.084C39.7152 47.084 39.5557 47.1214 39.4189 47.1963C39.2855 47.2712 39.1748 47.3753 39.0869 47.5088C38.999 47.639 38.9339 47.792 38.8916 47.9678C38.8493 48.1436 38.8281 48.3324 38.8281 48.5342ZM41.9727 48.373L41.4697 48.4365C41.4697 48.0915 41.512 47.7708 41.5967 47.4746C41.6846 47.1784 41.8132 46.918 41.9824 46.6934C42.1549 46.4688 42.3682 46.2946 42.6221 46.1709C42.876 46.0439 43.1689 45.9805 43.501 45.9805C43.7549 45.9805 43.986 46.0179 44.1943 46.0928C44.4027 46.1644 44.5801 46.2799 44.7266 46.4395C44.8763 46.5957 44.9902 46.8008 45.0684 47.0547C45.1497 47.3086 45.1904 47.6195 45.1904 47.9873V51.3613H43.7793V47.9873C43.7793 47.7432 43.7467 47.5576 43.6816 47.4307C43.6198 47.3005 43.5286 47.2109 43.4082 47.1621C43.291 47.11 43.151 47.084 42.9883 47.084C42.819 47.084 42.6709 47.1182 42.5439 47.1865C42.417 47.2516 42.3112 47.3428 42.2266 47.46C42.1419 47.5771 42.0785 47.7139 42.0361 47.8701C41.9938 48.0231 41.9727 48.1908 41.9727 48.373ZM49.1357 49.9014C49.1357 49.8005 49.1064 49.7093 49.0479 49.6279C48.9893 49.5465 48.8802 49.4717 48.7207 49.4033C48.5645 49.3317 48.3382 49.2666 48.042 49.208C47.7751 49.1494 47.526 49.0762 47.2949 48.9883C47.0671 48.8971 46.8685 48.7881 46.6992 48.6611C46.5332 48.5342 46.403 48.3844 46.3086 48.2119C46.2142 48.0361 46.167 47.8359 46.167 47.6113C46.167 47.39 46.2142 47.1816 46.3086 46.9863C46.4062 46.791 46.5446 46.6185 46.7236 46.4688C46.9059 46.3158 47.1273 46.1969 47.3877 46.1123C47.6514 46.0244 47.9476 45.9805 48.2764 45.9805C48.7354 45.9805 49.1292 46.0537 49.458 46.2002C49.79 46.3467 50.0439 46.5485 50.2197 46.8057C50.3988 47.0596 50.4883 47.3493 50.4883 47.6748H49.082C49.082 47.5381 49.0527 47.416 48.9941 47.3086C48.9388 47.1979 48.8509 47.1117 48.7305 47.0498C48.6133 46.9847 48.4603 46.9521 48.2715 46.9521C48.1152 46.9521 47.9801 46.9798 47.8662 47.0352C47.7523 47.0872 47.6644 47.1589 47.6025 47.25C47.5439 47.3379 47.5146 47.4355 47.5146 47.543C47.5146 47.6243 47.5309 47.6976 47.5635 47.7627C47.5993 47.8245 47.6562 47.8815 47.7344 47.9336C47.8125 47.9857 47.9134 48.0345 48.0371 48.0801C48.1641 48.1224 48.3203 48.1615 48.5059 48.1973C48.8867 48.2754 49.2269 48.3779 49.5264 48.5049C49.8258 48.6286 50.0635 48.7979 50.2393 49.0127C50.415 49.2243 50.5029 49.5026 50.5029 49.8477C50.5029 50.082 50.4508 50.2969 50.3467 50.4922C50.2425 50.6875 50.0928 50.8584 49.8975 51.0049C49.7021 51.1481 49.4678 51.2604 49.1943 51.3418C48.9242 51.4199 48.6198 51.459 48.2812 51.459C47.7897 51.459 47.373 51.3711 47.0312 51.1953C46.6927 51.0195 46.4355 50.7965 46.2598 50.5264C46.0872 50.2529 46.001 49.973 46.001 49.6865H47.334C47.3405 49.8786 47.3893 50.0332 47.4805 50.1504C47.5749 50.2676 47.6937 50.3522 47.8369 50.4043C47.9834 50.4564 48.1413 50.4824 48.3105 50.4824C48.4928 50.4824 48.6442 50.458 48.7646 50.4092C48.8851 50.3571 48.9762 50.2887 49.0381 50.2041C49.1032 50.1162 49.1357 50.0153 49.1357 49.9014Z" fill="white"/>
</svg>
