<svg width="20" height="20" viewBox="0 0 20 20" fill="none" xmlns="http://www.w3.org/2000/svg">
    <path fill-rule="evenodd" clip-rule="evenodd" d="M13.75 0H6.25C2.79876 0 0 2.79877 0 6.25001V13.75C0 17.2012 2.79876 20 6.25 20H13.75C17.2012 20 20 17.2012 20 13.75V6.25001C20 2.79877 17.2012 0 13.75 0ZM18.125 13.75C18.125 16.1625 16.1625 18.125 13.75 18.125H6.25C3.83749 18.125 1.87499 16.1625 1.87499 13.75V6.25001C1.87499 3.83749 3.83749 1.87499 6.25 1.87499H13.75C16.1625 1.87499 18.125 3.83749 18.125 6.25001L18.125 13.75ZM9.99998 5C7.23876 5 5 7.23876 5 10C5 12.7612 7.23876 15 9.99998 15C12.7612 15 15 12.7612 15 10C15 7.23876 12.7612 5 9.99998 5ZM9.99998 13.125C8.27748 13.125 6.87499 11.7225 6.87499 10C6.87499 8.27623 8.27748 6.87499 9.99998 6.87499C11.7225 6.87499 13.125 8.27623 13.125 10C13.125 11.7225 11.7225 13.125 9.99998 13.125ZM15 14.5C15 14.7761 14.7761 15 14.5 15C14.2239 15 14 14.7761 14 14.5C14 14.2239 14.2239 14 14.5 14C14.7761 14 15 14.2239 15 14.5Z" fill="white"/>
</svg>
