<svg width="22" height="18" viewBox="0 0 22 18" fill="none" xmlns="http://www.w3.org/2000/svg">
    <path d="M21.7312 2.5917C20.9331 2.92883 20.0827 3.1525 19.1961 3.26111C20.1082 2.73664 20.8045 1.9122 21.1318 0.918594C20.2813 1.40712 19.3424 1.75192 18.3419 1.9445C17.5342 1.11602 16.3835 0.603271 15.1277 0.603271C12.692 0.603271 10.7307 2.50772 10.7307 4.84216C10.7307 5.17807 10.7601 5.50107 10.8326 5.80872C7.17538 5.63672 3.9386 3.94827 1.7644 1.37603C1.38464 2.01031 1.16207 2.73664 1.16207 3.51829C1.16207 4.98589 1.94674 6.28715 3.1162 7.04013C2.4095 7.02721 1.71578 6.82938 1.12853 6.51809C1.12853 6.53101 1.12853 6.54797 1.12853 6.56452C1.12853 8.62401 2.65345 10.3347 4.65369 10.7287C4.29573 10.8232 3.90507 10.8684 3.50016 10.8684C3.21848 10.8684 2.93429 10.8531 2.66728 10.7961C3.23734 12.4745 4.85489 13.7083 6.77843 13.7483C5.2816 14.8764 3.3807 15.5559 1.32344 15.5559C0.962546 15.5559 0.616736 15.5405 0.270508 15.4977C2.2192 16.7077 4.52878 17.3989 7.01945 17.3989C15.1156 17.3989 19.5419 10.9391 19.5419 5.33957C19.5419 5.15223 19.5352 4.97136 19.526 4.79169C20.3991 4.19496 21.1331 3.44965 21.7312 2.5917Z" fill="white"/>
</svg>
