<svg width="14" height="14" viewBox="0 0 14 14" fill="none" xmlns="http://www.w3.org/2000/svg">
    <path fill-rule="evenodd" clip-rule="evenodd" d="M13.2857 13.2226C13.1295 13.3788 12.8762 13.3788 12.72 13.2226L0.840663 1.34316C0.684454 1.18695 0.684454 0.933683 0.840663 0.777473C0.996872 0.621262 1.25014 0.621263 1.40635 0.777473L13.2857 12.6569C13.4419 12.8131 13.4419 13.0664 13.2857 13.2226Z" fill="white"/>
    <path fill-rule="evenodd" clip-rule="evenodd" d="M0.840706 13.2226C0.996915 13.3788 1.25018 13.3788 1.40639 13.2226L13.2857 1.34316C13.442 1.18695 13.442 0.933683 13.2857 0.777473C13.1295 0.621262 12.8763 0.621263 12.7201 0.777473L0.840705 12.6569C0.684497 12.8131 0.684496 13.0664 0.840706 13.2226Z" fill="white"/>
</svg>
