<svg width="20" height="16" viewBox="0 0 20 16" fill="none" xmlns="http://www.w3.org/2000/svg">
    <path d="M19.15 2.1292C18.6075 1.10836 18.0188 0.9206 16.8201 0.849206C15.6225 0.763253 12.6113 0.727539 10.0025 0.727539C7.38875 0.727539 4.37628 0.763253 3.18001 0.847873C1.98375 0.9206 1.39376 1.10703 0.84625 2.1292C0.287499 3.14871 0 4.90474 0 7.9963C0 7.99893 0 8.00027 0 8.00027C0 8.0029 0 8.00423 0 8.00423V8.00686C0 11.0852 0.287499 12.8545 0.84625 13.8634C1.39376 14.8842 1.98249 15.0693 3.17876 15.1553C4.37625 15.2294 7.38875 15.273 10.0025 15.273C12.6113 15.273 15.6225 15.2294 16.8213 15.1566C18.02 15.0707 18.6088 14.8855 19.1513 13.8647C19.715 12.8558 20 11.0866 20 8.00819C20 8.00819 20 8.00423 20 8.0016V7.99764C20 4.90474 19.715 3.14871 19.15 2.1292ZM7.50002 11.9672V4.03332L13.75 8.00027L7.50002 11.9672Z" fill="white"/>
</svg>
