<svg width="337" height="80" viewBox="0 0 337 80" fill="none" xmlns="http://www.w3.org/2000/svg">
<path d="M6.65502 5.29834C6.65502 5.29834 -22.1388 21.4409 40.3368 72.5386C42.103 73.9763 46.9499 77.5498 48.8394 79.0285L51.8379 71.1831L61.3673 67.5685C61.6138 67.4042 8.17481 30.5597 17.1703 11.7882L6.65502 5.29834Z" fill="#EE0000"/>
<path d="M38.7759 12.7333C38.2009 16.1837 51.5093 26.4114 51.5093 26.4114C51.5093 26.4114 73.0738 2.8342 86.6287 22.0985C86.6287 22.0985 87.4502 15.0336 83.7123 9.11872C79.4405 2.38237 73.1149 0 66.5839 0C53.4398 0 39.2688 9.57055 38.7759 12.7333Z" fill="#EE0000"/>
<path d="M2.54753 9.15987C-1.80645 16.4713 0.740219 24.2756 0.740219 24.2756C14.3361 2.17706 45.3891 33.3122 45.3891 33.3122C45.3891 33.3122 52.8237 24.8506 58.2046 20.661C58.6564 20.3324 45.882 10.1867 42.8013 8.05083C38.1188 4.80588 28.425 0.287598 19.2652 0.287598C12.7342 0.287598 6.49076 2.54674 2.54753 9.15987Z" fill="#AEB1B5"/>
<path d="M44.7319 54.4248C50.3593 59.1485 55.4115 63.0095 58.4511 65.3098C66.7072 58.4913 94.7617 34.0925 87.9432 14.4585C84.4928 3.8611 72.2935 0.657227 72.2935 0.657227C72.2935 0.657227 92.8722 15.0336 44.7319 54.4248Z" fill="#AEB1B5"/>
<path d="M120.886 42.1435H114.683V23.4542H107.413V17.9912H128.156V23.4542H120.886V42.1435Z" fill="#404040"/>
<path d="M143.025 42.1435H130.58V17.9912H142.368C144.627 17.9912 146.476 18.5252 147.831 19.5931C149.187 20.6611 149.885 22.1809 149.885 24.1114C149.885 25.2205 149.597 26.1652 149.063 27.0278C148.53 27.8493 147.831 28.4654 147.051 28.8351C148.242 29.1226 149.31 29.8209 150.214 30.9299C151.158 32.08 151.61 33.5177 151.61 35.2428C151.61 37.2966 150.83 38.9807 149.228 40.2951C147.708 41.5274 145.654 42.1435 143.025 42.1435ZM136.782 23.0435V27.2742H141.423C142.163 27.2742 142.779 27.1099 143.231 26.7403C143.683 26.3706 143.888 25.8777 143.888 25.2205C143.888 24.5633 143.683 24.0293 143.231 23.6596C142.779 23.2899 142.163 23.0845 141.423 23.0845H136.782V23.0435ZM136.782 31.8336V36.968H141.793C142.738 36.968 143.477 36.7626 144.011 36.3108C144.545 35.859 144.833 35.2428 144.833 34.4213C144.833 33.5998 144.545 32.9837 144.011 32.5319C143.477 32.08 142.738 31.8336 141.793 31.8336H136.782Z" fill="#404040"/>
<path d="M174.9 38.9804C172.476 41.4039 169.437 42.6361 165.781 42.6361C162.125 42.6361 159.086 41.4039 156.662 38.9804C154.239 36.557 153.048 33.5585 153.048 30.0671C153.048 26.5757 154.239 23.6183 156.662 21.1538C159.086 18.7303 162.125 17.498 165.781 17.498C169.437 17.498 172.476 18.7303 174.9 21.1538C177.323 23.5772 178.515 26.5757 178.515 30.0671C178.515 33.5585 177.282 36.557 174.9 38.9804ZM161.222 34.9551C162.454 36.2284 163.974 36.8856 165.781 36.8856C167.589 36.8856 169.067 36.2284 170.299 34.9551C171.532 33.6817 172.148 32.0387 172.148 30.0671C172.148 28.0955 171.532 26.4525 170.299 25.1791C169.067 23.9058 167.589 23.2486 165.781 23.2486C163.974 23.2486 162.454 23.9058 161.222 25.1791C160.031 26.4525 159.415 28.0955 159.415 30.0671C159.415 32.0798 160.031 33.7228 161.222 34.9551Z" fill="#404040"/>
<path d="M185.662 42.1435H178.515L185.949 32.2443C184.471 31.6693 183.32 30.7656 182.499 29.5744C181.677 28.3833 181.267 26.9867 181.267 25.4258C181.267 23.2489 182.047 21.4415 183.608 20.0861C185.169 18.6895 187.305 17.9912 189.975 17.9912H201.353V42.1435H195.15V32.9426H192.603L185.662 42.1435ZM190.262 27.8493H195.068V23.2489H190.262C189.4 23.2489 188.742 23.4542 188.249 23.9061C187.757 24.3168 187.51 24.8919 187.51 25.6312C187.51 26.3295 187.757 26.9046 188.249 27.3153C188.742 27.6439 189.441 27.8493 190.262 27.8493Z" fill="#404040"/>
<path d="M234.007 38.9804C231.584 41.4039 228.544 42.6361 224.889 42.6361C221.233 42.6361 218.193 41.4039 215.77 38.9804C213.346 36.557 212.155 33.5585 212.155 30.0671C212.155 26.5757 213.346 23.6183 215.77 21.1538C218.193 18.7303 221.233 17.498 224.889 17.498C228.544 17.498 231.584 18.7303 234.007 21.1538C236.431 23.5772 237.622 26.5757 237.622 30.0671C237.622 33.5585 236.39 36.557 234.007 38.9804ZM220.329 34.9551C221.562 36.2284 223.081 36.8856 224.889 36.8856C226.696 36.8856 228.175 36.2284 229.407 34.9551C230.639 33.6817 231.255 32.0387 231.255 30.0671C231.255 28.0955 230.639 26.4525 229.407 25.1791C228.175 23.9058 226.696 23.2486 224.889 23.2486C223.081 23.2486 221.562 23.9058 220.329 25.1791C219.138 26.4525 218.522 28.0955 218.522 30.0671C218.522 32.0798 219.138 33.7228 220.329 34.9551Z" fill="#404040"/>
<path d="M246.823 42.1435H240.621V17.9912H261.528V42.1435H255.326V23.4542H246.823V42.1435Z" fill="#404040"/>
<path d="M286.42 38.9804C283.996 41.4039 280.956 42.6361 277.301 42.6361C273.645 42.6361 270.606 41.4039 268.182 38.9804C265.759 36.557 264.526 33.5585 264.526 30.0671C264.526 26.5757 265.718 23.6183 268.141 21.1538C270.564 18.7303 273.604 17.498 277.26 17.498C280.915 17.498 283.955 18.7303 286.378 21.1538C288.802 23.5772 289.993 26.5757 289.993 30.0671C290.034 33.5585 288.802 36.557 286.42 38.9804ZM272.741 34.9551C273.974 36.2284 275.493 36.8856 277.301 36.8856C279.108 36.8856 280.587 36.2284 281.819 34.9551C283.051 33.6817 283.667 32.0387 283.667 30.0671C283.667 28.0955 283.051 26.4525 281.819 25.1791C280.587 23.9058 279.108 23.2486 277.301 23.2486C275.493 23.2486 273.974 23.9058 272.741 25.1791C271.55 26.4525 270.934 28.0955 270.934 30.0671C270.934 32.0798 271.55 33.7228 272.741 34.9551Z" fill="#404040"/>
<path d="M299.235 42.1435H293.032V17.9912H303.794C306.505 17.9912 308.641 18.6895 310.202 20.0861C311.804 21.4826 312.584 23.2899 312.584 25.5491C312.584 27.7671 311.804 29.6155 310.202 31.0532C308.641 32.4497 306.505 33.148 303.794 33.148H299.235V42.1435ZM299.235 23.2489V28.0547H303.342C304.246 28.0547 304.944 27.8493 305.519 27.3975C306.053 26.9867 306.341 26.3706 306.341 25.6312C306.341 24.8919 306.094 24.2757 305.56 23.865C305.026 23.4542 304.287 23.2489 303.383 23.2489H299.235Z" fill="#404040"/>
<path d="M316.692 42.1432H310.12L320.265 17.8267H326.221L336.367 42.1432H329.713L327.659 37.0499H318.663L316.692 42.1432ZM323.223 25.631L320.717 32.0798H325.728L323.223 25.631Z" fill="#404040"/>
<path d="M116.942 62.8863H112.999V53.7676H119.612V55.4517H114.888V56.9304H116.942C118.01 56.9304 118.832 57.2179 119.448 57.7519C120.064 58.3269 120.393 59.0252 120.393 59.9289C120.393 60.7915 120.064 61.5308 119.448 62.1059C118.873 62.5988 118.01 62.8863 116.942 62.8863ZM114.888 58.4502V61.2022H116.819C117.353 61.2022 117.805 61.079 118.092 60.8325C118.38 60.5861 118.544 60.2575 118.544 59.8057C118.544 59.3538 118.38 59.0252 118.092 58.7788C117.805 58.5323 117.353 58.4091 116.819 58.4091H114.888V58.4502Z" fill="#404040"/>
<path d="M126.267 62.8041V61.12C126.472 61.2022 126.677 61.2432 126.924 61.2432C127.417 61.2432 127.745 60.9146 127.91 60.2574C128.074 59.5591 128.197 58.3269 128.197 56.4785L128.238 53.8086H134.687V62.9273H132.839V55.4516H130.087L130.046 57.3C129.963 59.4359 129.717 60.9146 129.306 61.7361C128.895 62.5576 128.115 62.9684 127.047 62.9684C126.718 62.9273 126.431 62.8862 126.267 62.8041Z" fill="#404040"/>
<path d="M143.107 62.8864H141.136L145.038 53.7266H146.845L150.747 62.8864H148.735L147.872 60.7915H144.011L143.107 62.8864ZM145.942 56.0679L144.586 59.2307H147.256L145.942 56.0679Z" fill="#404040"/>
<path d="M159.044 62.8863H157.155V53.7676H163.727V55.4517H159.003V62.8863H159.044Z" fill="#404040"/>
<path d="M169.519 58.3268C169.519 56.9713 169.97 55.8622 170.874 54.9586C171.778 54.0549 172.887 53.562 174.242 53.562C175.598 53.562 176.707 54.0138 177.61 54.9586C178.514 55.8622 178.966 57.0123 178.966 58.3268C178.966 59.6412 178.514 60.7502 177.61 61.6949C176.707 62.5986 175.598 63.0915 174.242 63.0915C172.887 63.0915 171.737 62.6397 170.874 61.6949C169.97 60.7502 169.519 59.6412 169.519 58.3268ZM172.23 60.4627C172.763 61.0377 173.421 61.3253 174.242 61.3253C175.023 61.3253 175.721 61.0377 176.255 60.4627C176.789 59.8876 177.076 59.1893 177.076 58.3268C177.076 57.4642 176.789 56.7659 176.255 56.1908C175.721 55.6158 175.064 55.3283 174.242 55.3283C173.421 55.3283 172.763 55.6158 172.23 56.1908C171.696 56.7659 171.449 57.4642 171.449 58.3268C171.449 59.1893 171.696 59.8876 172.23 60.4627Z" fill="#404040"/>
<path d="M186.401 64.7347H184.634V61.2022H185.538C185.949 60.5861 186.236 59.8057 186.442 58.8609C186.647 57.9573 186.729 56.725 186.729 55.2052V53.7676H193.137V61.2022H194.369V64.7347H192.644V62.8863H186.401V64.7347ZM187.633 61.2022H191.288V55.4517H188.619C188.619 56.725 188.536 57.793 188.413 58.6966C188.249 59.6003 188.002 60.4218 187.633 61.2022Z" fill="#404040"/>
<path d="M202.913 62.8863H201.064V53.7676H202.913V62.8863Z" fill="#404040"/>
<path d="M211.785 62.8863H210.224V53.7676H212.114V59.7235L216.55 53.7676H218.152V62.8863H216.303V56.8893L211.785 62.8863ZM211.785 51.0566H213.182C213.182 51.3442 213.264 51.5906 213.469 51.7549C213.633 51.9192 213.88 52.0014 214.208 52.0014C214.496 52.0014 214.742 51.9192 214.948 51.7549C215.112 51.5906 215.235 51.3442 215.235 51.0566H216.632C216.632 51.7549 216.385 52.2889 215.975 52.6997C215.523 53.1104 214.948 53.3158 214.249 53.3158C213.551 53.3158 212.976 53.1104 212.524 52.6997C212.031 52.2478 211.785 51.7138 211.785 51.0566Z" fill="#404040"/>
<path d="M227.229 62.8863H225.34V53.7676H227.229V57.1768H231.337V53.7676H233.185V62.8863H231.337V58.902H227.229V62.8863Z" fill="#404040"/>
<path d="M242.017 62.8863H240.456V53.7676H242.346V59.7235L246.782 53.7676H248.384V62.8863H246.535V56.8893L242.017 62.8863Z" fill="#404040"/>
<path d="M257.173 62.8863H255.612V53.7676H257.502V59.7235L261.938 53.7676H263.54V62.8863H261.65V56.8893L257.173 62.8863ZM257.173 51.0566H258.57C258.57 51.3442 258.652 51.5906 258.857 51.7549C259.022 51.9192 259.268 52.0014 259.597 52.0014C259.884 52.0014 260.131 51.9192 260.336 51.7549C260.5 51.5906 260.623 51.3442 260.623 51.0566H262.02C262.02 51.7549 261.774 52.2889 261.363 52.6997C260.911 53.1104 260.336 53.3158 259.638 53.3158C258.939 53.3158 258.364 53.1104 257.913 52.6997C257.379 52.2478 257.173 51.7138 257.173 51.0566Z" fill="#404040"/>
<path d="M285.269 63.2559H283.379V62.2701C281.983 62.229 280.874 61.8183 280.134 61.0378C279.395 60.2574 278.984 59.3537 278.984 58.2858C278.984 57.2178 279.354 56.3142 280.134 55.5337C280.915 54.7533 281.983 54.3426 283.379 54.3015V53.48H285.269V54.3015C286.665 54.3426 287.733 54.7533 288.514 55.5337C289.294 56.3142 289.664 57.2178 289.664 58.2858C289.664 59.3537 289.294 60.2574 288.514 61.0378C287.733 61.8183 286.665 62.229 285.269 62.2701V63.2559ZM283.379 60.5449V55.9445C282.599 55.9445 281.983 56.1499 281.572 56.5606C281.12 56.9714 280.915 57.5464 280.915 58.2036C280.915 58.9019 281.12 59.4359 281.572 59.8467C281.983 60.2985 282.599 60.5039 283.379 60.5449ZM285.269 55.9445V60.5449C286.049 60.5449 286.665 60.2985 287.076 59.8877C287.528 59.477 287.733 58.943 287.733 58.2447C287.733 57.5464 287.528 57.0125 287.076 56.6017C286.665 56.191 286.049 55.9445 285.269 55.9445Z" fill="#404040"/>
<path d="M296.277 58.3268C296.277 56.9713 296.729 55.8622 297.633 54.9586C298.536 54.0549 299.646 53.562 301.001 53.562C302.356 53.562 303.466 54.0138 304.369 54.9586C305.273 55.8622 305.725 57.0123 305.725 58.3268C305.725 59.6412 305.273 60.7502 304.369 61.6949C303.466 62.5986 302.356 63.0915 301.001 63.0915C299.646 63.0915 298.495 62.6397 297.633 61.6949C296.77 60.7502 296.277 59.6412 296.277 58.3268ZM298.988 60.4627C299.522 61.0377 300.221 61.3253 301.001 61.3253C301.781 61.3253 302.48 61.0377 303.014 60.4627C303.548 59.8876 303.835 59.1893 303.835 58.3268C303.835 57.4642 303.548 56.7659 303.014 56.1908C302.48 55.6158 301.823 55.3283 301.001 55.3283C300.179 55.3283 299.522 55.6158 298.988 56.1908C298.454 56.7659 298.208 57.4642 298.208 58.3268C298.208 59.1893 298.454 59.8876 298.988 60.4627Z" fill="#404040"/>
<path d="M314.514 62.8863H312.625V53.7676H314.514V57.1768H318.622V53.7676H320.47V62.8863H318.622V58.902H314.514V62.8863Z" fill="#404040"/>
<path d="M328.727 64.7347H326.96V61.2022H327.864C328.275 60.5861 328.562 59.8057 328.768 58.8609C328.973 57.9573 329.055 56.725 329.055 55.2052V53.7676H335.463V61.2022H336.695V64.7347H334.929V62.8863H328.686V64.7347H328.727ZM329.959 61.2022H333.615V55.4517H330.945C330.945 56.725 330.863 57.793 330.739 58.6966C330.575 59.6003 330.329 60.4218 329.959 61.2022Z" fill="#404040"/>
</svg>
