<?xml version="1.0" encoding="UTF-8" standalone="no"?>
<svg
   width="141.98192"
   height="20"
   viewBox="0 0 141.98192 20"
   fill="none"
   version="1.1"
   id="svg866"
   xmlns="http://www.w3.org/2000/svg"
   xmlns:svg="http://www.w3.org/2000/svg">
  <defs
     id="defs870" />
  <g
     id="g1102"
     transform="translate(39.869629,5e-5)"
     style="fill:#000000">
    <path
       d="m 2.35284,4.4839 c 1.22729,0 2.22222,-1.00375 2.22222,-2.24195 C 4.57506,1.00376 3.58013,0 2.35284,0 1.12554,0 0.130615,1.00376 0.130615,2.24195 c 0,1.2382 0.994925,2.24195 2.222225,2.24195 z"
       fill="#ffffff"
       id="path1030"
       style="fill:#000000" />
    <path
       d="M 4.57481,6.6814 H 0.130371 V 19.9999 H 4.57481 Z"
       fill="#ffffff"
       id="path1032"
       style="fill:#000000" />
    <path
       d="M 11.2418,6.68134 H 6.79736 V 19.9999 h 4.44444 v -6.3485 c 0,-3.81801 4.4444,-4.17317 4.4444,0 v 6.3485 h 4.4445 v -7.4584 c 0,-7.2808 -6.9556,-7.03663 -8.8889,-3.44063 z"
       fill="#ffffff"
       id="path1034"
       style="fill:#000000" />
  </g>
  <path
     d="M 6.48562,20 V 10.8771 H 9.4377 L 9.8786,7.32226 H 6.49201 V 5.04983 c 0,-1.0299 0.27476,-1.72757 1.69329,-1.72757 H 10 V 0.139535 C 9.68051,0.093025 8.60064,0 7.35463,0 4.74121,0 2.95847,1.66113 2.95847,4.70432 V 7.3289 H 0 v 3.5548 H 2.95847 V 20 Z"
     fill="#ffffff"
     id="path1261"
     style="fill:#000000" />
  <path
     d="m 34.15,4.3172805 c -0.5425,-1.02084 -1.1312,-1.2086 -2.3299,-1.279994 -1.1976,-0.08595 -4.2088,-0.121667 -6.8176,-0.121667 -2.61375,0 -5.62622,0.03571 -6.82249,0.120334 -1.19626,0.07273 -1.78625,0.259157 -2.33376,1.281327 C 15.287499,5.3367905 15,7.0928205 15,10.18438 c 0,0.0026 0,0.004 0,0.004 0,0.0026 0,0.004 0,0.004 v 0.0026 c 0,3.078341 0.287499,4.847641 0.84625,5.856541 0.54751,1.0208 1.13624,1.2059 2.33251,1.2919 1.19749,0.0741 4.20999,0.1177 6.82374,0.1177 2.6088,0 5.62,-0.0436 6.8188,-0.1164 1.1987,-0.0859 1.7875,-0.2711 2.33,-1.2919 C 34.715,15.043921 35,13.274721 35,10.19631 c 0,0 0,-0.004 0,-0.0066 v -0.004 C 35,7.0928105 34.715,5.3367805 34.15,4.3172705 Z M 22.50002,14.155281 V 6.2214005 L 28.75,10.18835 Z"
     fill="#ffffff"
     id="path1385"
     style="fill:#000000" />
  <path
     d="M 65.931726,8.6055678 83.668378,2.0799346 c 0.8235,-0.283873 1.5421,0.191304 1.2755,1.379594 l 0.001,-0.0014 -3.0201,13.5758494 c -0.2235,0.9627 -0.8235,1.1965 -1.6621,0.7432 l -4.598902,-3.2343 -2.21827,2.0392 c -0.24503,0.2338 -0.45198,0.4313 -0.92768,0.4313 l 0.32623,-4.4659 8.523022,-7.3477194 c 0.3708,-0.3113 -0.0826,-0.48684 -0.5719,-0.17691 l -10.531532,6.3288394 -4.5407,-1.35148 C 64.737052,9.7012578 64.715495,9.0594578 65.931326,8.6055378 Z"
     fill="#ffffff"
     id="path1509"
     style="fill:#000000" />
  <path
     fill-rule="evenodd"
     clip-rule="evenodd"
     d="M 103.75,2e-7 H 96.250004 C 92.79876,2e-7 90,2.7987702 90,6.2500102 V 13.75 C 90,17.2012 92.79876,20 96.250004,20 H 103.75 c 3.4512,0 6.25,-2.7988 6.25,-6.25 V 6.2500102 C 110,2.7987702 107.2012,2e-7 103.75,2e-7 Z M 108.125,13.75 c 0,2.4125 -1.9625,4.375 -4.375,4.375 h -7.499996 c -2.412514,0 -4.375014,-1.9625 -4.375014,-4.375 V 6.2500102 c 0,-2.41252 1.9625,-4.37502 4.375014,-4.37502 H 103.75 c 2.4125,0 4.375,1.9625 4.375,4.37502 z M 99.999984,5.0000002 C 97.238764,5.0000002 95,7.2387602 95,9.9999998 95,12.7612 97.238764,15 99.999984,15 102.7612,15 105,12.7612 105,9.9999998 105,7.2387602 102.7612,5.0000002 99.999984,5.0000002 Z m 0,8.1249998 c -1.7225,0 -3.12499,-1.4025 -3.12499,-3.1250002 0,-1.72377 1.40249,-3.1250096 3.12499,-3.1250096 1.722516,0 3.125016,1.4012396 3.125016,3.1250096 0,1.7225002 -1.4025,3.1250002 -3.125016,3.1250002 z M 105,14.5 c 0,0.2761 -0.2239,0.5 -0.5,0.5 -0.2761,0 -0.5,-0.2239 -0.5,-0.5 0,-0.2761 0.2239,-0.5 0.5,-0.5 0.2761,0 0.5,0.2239 0.5,0.5 z"
     fill="#ffffff"
     id="path1633"
     style="fill:#000000" />
  <path
     d="m 141.46069,3.5906145 c -0.7981,0.33713 -1.6485,0.5608 -2.5351,0.66941 0.9121,-0.52447 1.6084,-1.34891 1.9357,-2.342516 -0.8505,0.488526 -1.7894,0.833326 -2.7899,1.025906 -0.8077,-0.82848 -1.9584,-1.341229 -3.2142,-1.341229 -2.4357,0 -4.397,1.904449 -4.397,4.238889 0,0.33591 0.0294,0.65891 0.1019,0.96656 -3.65722,-0.172 -6.894,-1.86045 -9.0682,-4.43269 -0.37976,0.63428 -0.60233,1.36061 -0.60233,2.14226 0,1.4676 0.78467,2.76886 1.95413,3.52184 -0.7067,-0.01292 -1.40042,-0.21075 -1.98767,-0.52204 0,0.01292 0,0.02988 0,0.04643 0,2.0594903 1.52492,3.7701805 3.52516,4.1641805 -0.35796,0.0945 -0.74862,0.1397 -1.15353,0.1397 -0.28168,0 -0.56587,-0.0153 -0.83288,-0.0723 0.57006,1.6784 2.18761,2.9122 4.11115,2.9522 -1.49683,1.1281 -3.39773,1.8076 -5.45499,1.8076 -0.36089,0 -0.7067,-0.0154 -1.05293,-0.0582 1.94869,1.21 4.25827,1.9012 6.74894,1.9012 8.09615,0 12.52245,-6.4598 12.52245,-12.0593305 0,-0.18734 -0.007,-0.36821 -0.0159,-0.54788 0.8731,-0.59673 1.6071,-1.34204 2.2052,-2.19999 z"
     fill="#ffffff"
     id="path1757"
     style="fill:#000000" />
</svg>
